<?xml version="1.0" encoding="UTF-8"?>
<svg version="1.1" viewBox="0 0 1416 1600" width="1280" height="1280" xmlns="http://www.w3.org/2000/svg">
<path transform="translate(727,351)" d="m0 0c0.919 0.0126 1.84 0.0251 2.78 0.0381 27.5 0.484 55.1 3.9 82.2 7.96v2c0.655-0.0464 1.31-0.0928 1.98-0.141 9.85-0.375 18.8 1.83 28.3 4.14 1.63 0.387 3.26 0.772 4.89 1.16 3.96 0.934 7.91 1.88 11.9 2.84v2c1.22-0.0825 2.43-0.165 3.69-0.25 3.26 0.00578 4.3 0.244 7.25 1.94 2.25 2.52 2.79 3.98 3.06 7.31 1.58 0.217 1.58 0.217 3.19 0.438 3.81 0.562 3.81 0.562 6.56 1.19 2.41 0.582 2.41 0.582 5.25-0.625v-2h6v2c1.92 0.137 1.92 0.137 3.87 0.277 5.41 0.601 10.1 2.31 15.2 4.29 0.866 0.329 1.73 0.659 2.62 0.998 2.11 0.804 4.21 1.62 6.31 2.44v2c0.971 0.0915 1.94 0.183 2.94 0.277 4.65 0.664 8.71 2.43 13 4.29 0.779 0.329 1.56 0.659 2.36 0.998 1.9 0.806 3.8 1.62 5.7 2.44v2c0.991 0.0915 1.98 0.183 3 0.277 4.38 0.626 8 2.33 11.9 4.29 1.03 0.494 1.03 0.494 2.07 0.998 1.67 0.805 3.33 1.62 4.99 2.44v2c0.848 0.0915 1.7 0.183 2.57 0.277 3.94 0.829 6.8 2.32 10.3 4.29 1.15 0.641 2.3 1.28 3.49 1.94 0.869 0.494 1.74 0.987 2.63 1.5v2c1.29 0.141 1.29 0.141 2.6 0.285 3.81 0.801 6.44 2.17 9.77 4.15 1.06 0.617 2.12 1.23 3.21 1.87l2.41 1.69v2c1.04 0.141 1.04 0.141 2.11 0.285 3.49 0.861 6.11 2.33 9.21 4.15 1.07 0.617 2.14 1.23 3.24 1.87l2.45 1.69v2c0.681 0.0412 1.36 0.0825 2.06 0.125 4.2 1.25 7.17 3.47 9.94 6.88 0.144 1.18 0.289 2.35 0.438 3.56 0.193 3.42 0.193 3.42 2.24 4.96 3.36 2.14 6.41 3.65 10.3 4.48v-2h4v2c0.726 0.0941 1.45 0.188 2.2 0.285 3.23 0.825 5.02 2.08 7.61 4.15 0.79 0.617 1.58 1.23 2.39 1.87 0.592 0.558 1.18 1.12 1.79 1.69v2c0.562 0.0941 1.12 0.188 1.7 0.285 2.86 0.891 4.69 2.3 7.05 4.15 0.799 0.617 1.6 1.23 2.42 1.87l1.83 1.69v2c0.681 0.206 1.36 0.413 2.06 0.625 3.85 1.8 7.02 4.28 9.94 7.38v2c0.583 0.0941 1.17 0.188 1.77 0.285 2.73 0.874 3.99 2.11 5.98 4.15 0.614 0.617 1.23 1.23 1.86 1.87 1.39 1.69 1.39 1.69 1.39 3.69 0.583 0.0941 1.17 0.188 1.77 0.285 2.73 0.874 3.99 2.11 5.98 4.15 0.614 0.617 1.23 1.23 1.86 1.87 1.39 1.69 1.39 1.69 1.39 3.69h3c1.28 1.47 2.55 2.94 3.72 4.49 1.4 1.78 1.4 1.78 4.28 3.51v2c0.866 0.34 0.866 0.34 1.75 0.688 2.81 1.64 4.28 3.75 6.25 6.31 0.66 0.33 1.32 0.66 2 1v2h2c1.73 1.68 1.73 1.68 3.62 3.88 0.632 0.719 1.26 1.44 1.91 2.18 1.46 1.95 1.46 1.95 1.46 3.95 0.99 0.33 1.98 0.66 3 1 1.61 1.56 1.61 1.56 3.19 3.44 0.53 0.617 1.06 1.23 1.61 1.87 1.21 1.69 1.21 1.69 1.21 3.69h2c1.51 1.68 1.51 1.68 3.12 3.88 0.539 0.719 1.08 1.44 1.63 2.18 1.24 1.95 1.24 1.95 1.24 3.95 0.897 0.371 0.897 0.371 1.81 0.75 2.64 1.51 3.79 2.53 5.19 5.25-0.312 3.56-0.312 3.56-1 7 0 3.94 1.43 5.13 4 8 0.66 0.33 1.32 0.66 2 1v2c0.846-0.289 1.69-0.578 2.56-0.875 3.64-0.132 4.12-0.0581 6.81 2.06 4.31 4.11 7.35 9.07 10.5 14.1 1.57 2.45 3.2 4.86 4.83 7.27 4.97 7.37 9.68 14.9 14.3 22.5 0.684 1.1 1.37 2.2 2.07 3.34 4.82 7.8 9.22 15.8 13.5 23.9 0.537 1.01 1.07 2.03 1.63 3.07 0.743 1.43 0.743 1.43 1.5 2.88 0.445 0.852 0.891 1.7 1.35 2.58 0.959 2.21 0.959 2.21 0.959 5.21h2c0.246 0.553 0.493 1.11 0.747 1.68 1.98 4.43 3.96 8.86 5.95 13.3 0.379 0.844 0.758 1.69 1.15 2.56 1.18 2.53 2.43 5.01 3.72 7.48 2.53 4.96 4.64 10.1 6.75 15.2 0.543 1.3 0.543 1.3 1.1 2.62 1.8 4.47 3.28 8.22 2.59 13.1-2 2.37-2 2.37-4 4 2.58 7 2.58 7 8.12 11.3 1.42 0.34 1.42 0.34 2.88 0.688 2.78 3.78 4.09 7.91 5.38 12.4 0.216 0.724 0.431 1.45 0.653 2.19 0.707 2.4 1.4 4.79 2.09 7.2 0.24 0.833 0.48 1.67 0.728 2.53 9.11 31.8 15.4 63.8 19.1 96.7 0.195 1.67 0.195 1.67 0.394 3.38 1.29 11.2 1.89 22.3 1.61 33.6l-6 3c0 2.35 0.303 4.72 0.5 7.06 0.0928 1.1 0.186 2.21 0.281 3.35 0.0722 0.855 0.144 1.71 0.219 2.59 0.598 0.0825 1.2 0.165 1.81 0.25 2.97 1.02 3.73 1.97 5.19 4.75 0.286 2.64 0.376 4.99 0.312 7.62-0.018 1.23-0.018 1.23-0.0364 2.49-0.0625 2.96-0.164 5.93-0.276 8.89-0.0638 1.72-0.0638 1.72-0.129 3.48-1.36 33.2-3.94 67-11.2 99.5-0.763 3.45-1.47 6.91-2.18 10.4-0.516 2.46-1.03 4.92-1.55 7.38-0.233 1.13-0.466 2.26-0.707 3.42-1.31 6-2.82 10.8-6.23 15.9h-5c-1.49 5.44-1.49 5.44-3 11 1.32 1.32 2.64 2.64 4 4 0.182 10.9-4.83 22.6-8.99 32.6-1.1 2.67-2.12 5.36-3.13 8.06-9.9 25.7-21.4 50.3-34.9 74.4-0.827 1.49-1.65 2.99-2.48 4.48-13.7 24.6-13.7 24.6-17.5 27.5-6.44-0.444-6.44-0.444-8-2-0.0619 0.701-0.124 1.4-0.188 2.12-1.1 3.91-3.09 5.88-5.81 8.88 0.516 0.722 1.03 1.44 1.56 2.19 1.72 3.37 1.49 4.27 0.438 7.81-1.31 2.25-1.31 2.25-3 4.56-0.63 0.868-1.26 1.74-1.91 2.63-1.03 1.39-1.03 1.39-2.09 2.81-0.721 0.978-1.44 1.96-2.18 2.96-4.23 5.69-8.58 11.3-13 16.8-1.56 1.98-3.03 3.99-4.46 6.06-2.22 3.06-4.64 5.52-7.31 8.19-0.474 0.825-0.949 1.65-1.44 2.5-2.01 3.21-4.67 5.09-7.56 7.5-0.474 0.804-0.949 1.61-1.44 2.44-1.87 3.07-4.12 4.84-6.94 7.04-1.8 1.7-2.54 3.32-3.62 5.53-0.763 0.433-1.53 0.866-2.31 1.31-2.64 1.66-3.47 2.61-5.12 5.12-2.34 3.52-5.03 5.23-8.56 7.56-1.34 1.99-2.68 3.99-4 6-1.66 1.01-3.33 2.01-5 3-1.03 1.14-2.03 2.31-3 3.5-2.41 2.95-4.66 4.62-8 6.5-0.887 0.887-1.77 1.77-2.69 2.69-0.763 0.763-1.53 1.53-2.31 2.31h-2v2c-1.97 1.38-3.97 2.71-6 4-0.33 0.33-0.66 0.66-1 1-4.03 0.263-5.56 0.294-9-2-1.54 1.21-3.05 2.44-4.56 3.69l-2.57 2.07c-0.617 0.739-1.23 1.48-1.87 2.24 0.217 2.54 0.217 2.54 1 5-0.133 2.08-0.133 2.08-1 4-2.18 1.89-2.18 1.89-4.88 3.69-1.33 0.903-1.33 0.903-2.68 1.82-2.45 1.49-2.45 1.49-5.45 2.49v2c-0.888 0.454-0.888 0.454-1.79 0.918-3.66 1.94-6.73 3.6-9.64 6.58-3.1 3.03-6.32 4.41-10.2 6.24-3 1.6-4.99 3.83-7.36 6.26-2.31 1.05-4.65 2.04-7 3-2.14 1.28-4.22 2.63-6.3 4.01-1.7 0.988-1.7 0.988-3.7 0.988v2c-2.62 1.34-5.25 2.67-7.88 4-1.12 0.572-1.12 0.572-2.26 1.16-0.715 0.361-1.43 0.722-2.17 1.09-0.66 0.335-1.32 0.67-2 1.02-1.7 0.734-1.7 0.734-3.7 0.734v2c-0.641 0.242-1.28 0.485-1.94 0.734-4.17 1.62-8.2 3.23-12.1 5.52-3 1.75-3 1.75-5 1.75v2c-0.869 0.326-1.74 0.652-2.63 0.988l-3.49 1.32c-1.14 0.429-2.27 0.859-3.45 1.3-3.45 1.34-3.45 1.34-6.73 3.05-2.7 1.33-2.7 1.33-4.7 1.33v2c-1.25 0.381-1.25 0.381-2.53 0.77-1.69 0.516-1.69 0.516-3.41 1.04-1.19 0.356-2.37 0.712-3.59 1.08-2.89 0.925-5.61 2-8.41 3.17-2.12 0.742-2.12 0.742-4.06 0.938-2.67-1.32-3.96-2.75-6-5-0.626 0.289-1.25 0.578-1.9 0.875l-2.48 1.12c-0.812 0.371-1.62 0.742-2.46 1.12-2.16 0.875-2.16 0.875-4.16 0.875 0.155 1.36 0.155 1.36 0.312 2.75-0.312 3.25-0.312 3.25-2.5 5.5-3.69 2.29-6.44 3.75-10.8 3.75v2c-0.825 0.159-1.65 0.317-2.5 0.48-7.58 1.53-14.8 3.43-22.2 5.89-3.34 1.1-5.76 1.63-9.33 1.63v2c-0.972 0.159-1.94 0.317-2.95 0.48-9.61 1.61-19.1 3.59-28.6 5.89-4.59 1.09-8.73 1.92-13.5 1.63v2c-1.01 0.098-2.03 0.196-3.07 0.297-1.54 0.151-3.08 0.302-4.61 0.453-0.85 0.0836-1.7 0.167-2.58 0.253-6.35 0.634-12.7 1.32-19 2.02-1.65 0.183-3.31 0.365-4.96 0.548-2.49 0.275-4.98 0.552-7.47 0.833-2.37 0.268-4.74 0.53-7.11 0.791-1.06 0.122-1.06 0.122-2.14 0.246-12.9 1.41-12.9 1.41-16.5-1.32-1.56-2.12-1.56-2.12-2.56-4.12h-12c-0.351 1.13-0.701 2.27-1.06 3.44-0.598 1.93-0.598 1.93-1.94 3.56-5.56 1.32-11.2 1.16-16.9 1.12-0.969-0.00483-1.94-0.00967-2.94-0.0146-3.04-0.0245-6.08-0.0639-9.13-0.11l-2.72-0.0381c-14-0.253-27.9-1.5-41.8-2.9-0.852-0.0854-1.7-0.171-2.58-0.259-9.54-0.964-19-2.04-28.5-3.38-5.42-0.695-10.9-1.08-16.3-1.43v-2c-0.549-0.0367-1.1-0.0733-1.66-0.111-7.91-0.65-15.5-2.21-23.3-3.95-0.658-0.131-1.32-0.263-2-0.398-11.2-2.23-11.2-2.23-13.4-5.51-0.64-1.98-1.14-4.01-1.63-6.03-3.18-1.85-6.34-2.16-10-2-1.37 1.29-2.71 2.63-4 4-7.78-0.125-15.4-2.29-23-4v-2c-8.99-2.72-18-5.36-27-8v-2c-0.681-0.103-1.36-0.206-2.06-0.312-4.78-1.12-9.09-3.31-13.6-5.31-2.85-1.16-5.35-1.92-8.38-2.38v-2l-2.31-0.688c-4.14-1.47-8.04-3.3-12-5.19-2.58-1.08-4.93-1.68-7.68-2.12v-2c-1.08-0.416-1.08-0.416-2.18-0.84-3.58-1.48-6.98-3.25-10.4-5.04-2.15-1-4.09-1.65-6.4-2.12v-2l-1.94-0.688c-3.46-1.48-6.63-3.29-9.88-5.19-2.08-1.07-3.91-1.66-6.18-2.12v-2c-0.83-0.408-0.83-0.408-1.68-0.824-2.53-1.28-5.03-2.6-7.51-3.99-0.88-0.481-1.76-0.962-2.67-1.46-2.14-1.73-2.14-1.73-3.01-4.24-0.137-2.49-0.137-2.49 0.863-5.49l-1.62-0.688c-3.16-1.75-5.64-3.95-8.38-6.31l-1.69 1.5c-2.82 1.83-4 1.88-7.31 1.5-2.57-1.5-2.57-1.5-5.12-3.44-2.72-2.05-4.64-3.48-7.88-4.56-1.69-1.64-3.35-3.31-5-5-2.75-2.35-4.56-3.85-8-5v-2l-1.62-0.688c-2.37-1.31-2.37-1.31-5.44-3.88-2.74-2.57-2.74-2.57-5.94-3.44-1.34-1.66-2.68-3.33-4-5-2.72-2.39-4.56-3.85-8-5-1.21-1.48-2.42-2.95-3.61-4.45-2.11-2.34-4.77-3.82-7.39-5.55-0.639-0.804-1.28-1.61-1.94-2.44-1.82-2.26-3.03-3.32-5.38-4.88-3.64-2.47-6.25-5.43-9.07-8.78-2.59-3.07-5.37-5.87-8.45-8.45-4.5-3.77-8.06-7.68-11.6-12.4-1.99-2.59-4.22-4.83-6.59-7.07-1.37-1.3-2.72-2.62-4-4v-2h-2c-2.45-2.74-4.39-5.69-6-9 0.25-3.75 0.25-3.75 1-7-0.603-2.85-0.603-2.85-2-5-0.99-0.33-1.98-0.66-3-1-0.33-0.66-0.66-1.32-1-2-1.58 0.155-1.58 0.155-3.19 0.312-4.85-0.398-5.62-1.76-8.81-5.31-27.4-32.9-49.4-72.1-67-111-0.988-2.16-2-4.31-3.01-6.46-0.651-1.42-1.3-2.84-1.95-4.25-0.303-0.639-0.606-1.28-0.919-1.94-1.93-4.3-2.37-7.75-2.08-12.4 0.99-0.33 1.98-0.66 3-1-0.289-0.687-0.578-1.37-0.875-2.08-0.371-0.901-0.743-1.8-1.12-2.73-0.371-0.893-0.743-1.79-1.12-2.71-0.875-2.48-0.875-2.48-0.875-5.48-2.64-0.33-5.28-0.66-8-1-38.8-116-38.8-116-33-157 1.27-0.928 1.27-0.928 2.56-1.88 2.74-1.9 2.74-1.9 2.72-4.92-0.224-4.68-0.224-4.68-1.29-9.21-1.63-1.06-3.3-2.06-5-3-1.52-3.75-1.16-7.92-1.17-11.9-0.00628-1.18-0.00628-1.18-0.0127-2.39-0.00986-2.59-0.00977-5.18-0.00684-7.77 2.72e-4 -0.89 5.44e-4 -1.78 8.24e-4 -2.7 0.0254-18.1 0.772-36.2 2.19-54.2 0.129-1.69 0.129-1.69 0.26-3.42 1.27-15.7 3.95-31.2 6.74-46.7 0.26-1.45 0.26-1.45 0.525-2.94 0.504-2.8 1.02-5.59 1.54-8.38 0.15-0.83 0.3-1.66 0.455-2.52 2.7-14.3 2.7-14.3 6.48-18h4c0.199-1.16 0.199-1.16 0.402-2.34 0.177-1 0.353-2.01 0.535-3.04l0.527-3.02c0.535-2.6 0.535-2.6 1.54-4.6h-2c-2.08-5.59-1.94-9.23-0.125-14.9 0.227-0.76 0.454-1.52 0.688-2.3 0.787-2.6 1.61-5.18 2.44-7.76 0.314-0.99 0.627-1.98 0.95-3 1-3.15 2.02-6.3 3.05-9.44 0.32-0.982 0.639-1.96 0.968-2.97 1.97-5.88 4.27-11.5 6.89-17.1 1.46-3.2 2.65-6.43 3.83-9.74 7.62-20.8 17.4-40.6 27.9-60.1 0.53-0.991 1.06-1.98 1.61-3 9.29-17.1 9.29-17.1 13.8-21.7 3.62-0.125 3.62-0.125 7 0 0.268-0.701 0.536-1.4 0.812-2.12 1.26-3.04 2.69-5.95 4.19-8.88l-2-3c0.165-4.95 3.04-8.43 5.81-12.3 0.487-0.695 0.974-1.39 1.48-2.11 7.34-10.4 15-20.6 23-30.5 1.61-2.03 3.09-4.12 4.56-6.25 0.701-0.949 1.4-1.9 2.12-2.88h2c0.34-0.804 0.34-0.804 0.688-1.62 1.77-3.2 3.85-5.67 6.31-8.38h2c0.34-1.08 0.34-1.08 0.688-2.19 1.58-3.38 3.52-5.37 6.31-7.81h2c0.34-1.08 0.34-1.08 0.688-2.19 1.58-3.38 3.52-5.37 6.31-7.81h2l0.625-1.62c1.91-3.29 4.42-5.97 7.38-8.38h2l0.625-1.62c1.91-3.29 4.42-5.97 7.38-8.38h2c0.258-0.593 0.516-1.19 0.781-1.8 1.32-2.38 2.64-3.71 4.72-5.45 0.608-0.521 1.22-1.04 1.84-1.58 1.66-1.17 1.66-1.17 3.66-1.17 0.227-0.578 0.454-1.15 0.688-1.75 1.72-2.94 3.44-4.42 6.31-6.25 3.13-0.25 3.13-0.25 6 0 4.09 0 5.58-1.65 8.56-4.29 2.1-2.51 1.64-4.54 1.44-7.71 2.63-4.14 6.1-7.1 10-10h3v-2c2.3-1.95 2.3-1.95 5.31-4.12 0.986-0.724 1.97-1.45 2.99-2.2 2.7-1.68 2.7-1.68 5.7-1.68 0.33-0.99 0.66-1.98 1-3 2.18-1.82 2.18-1.82 4.88-3.69 0.884-0.623 1.77-1.25 2.68-1.89 2.45-1.43 2.45-1.43 5.45-1.43v-2c2.48-1.95 2.48-1.95 5.75-4.12 1.07-0.724 2.13-1.45 3.23-2.2 3.02-1.68 3.02-1.68 7.02-1.68 0.33-0.99 0.66-1.98 1-3 2.36-1.82 2.36-1.82 5.31-3.69l2.93-1.89c2.76-1.43 2.76-1.43 6.76-1.43v-2c2.24-1.34 4.49-2.68 6.75-4 0.951-0.572 0.951-0.572 1.92-1.16 3.47-2.02 5.22-2.84 9.33-2.84v-2c2.41-1.34 4.83-2.68 7.25-4 0.682-0.382 1.36-0.763 2.07-1.16 0.664-0.361 1.33-0.722 2.01-1.09 0.911-0.503 0.911-0.503 1.84-1.02 1.83-0.734 1.83-0.734 5.83-0.734v-2c2.91-1.35 5.83-2.67 8.75-4 0.825-0.382 1.65-0.763 2.5-1.16 0.799-0.361 1.6-0.722 2.42-1.09 0.733-0.335 1.47-0.67 2.22-1.02 2.11-0.734 2.11-0.734 6.11-0.734v-2c2.64-0.33 5.28-0.66 8-1 0.33 0.99 0.66 1.98 1 3 0.592-0.205 1.18-0.41 1.79-0.621 4.04-1.38 7.98-2.7 12.2-3.38-0.0825-0.743-0.165-1.49-0.25-2.25 0.25-2.75 0.25-2.75 1.65-4.69 3.79-3.01 7.93-4.28 12.5-5.81 0.886-0.316 1.77-0.632 2.68-0.957 4.61-1.59 8.49-2.72 13.4-2.29v-2c4.16-1.35 8.33-2.68 12.5-4 1.76-0.572 1.76-0.572 3.55-1.16 6.2-1.95 11.4-3.36 17.9-2.84v-2c4.9-1.16 9.81-2.29 14.7-3.42 1.67-0.383 3.33-0.771 4.99-1.16 9.52-2.25 18.4-4.12 28.3-3.42v-2c5.42-0.743 10.9-1.47 16.3-2.19 1.84-0.246 3.69-0.495 5.53-0.748 2.66-0.364 5.32-0.715 7.98-1.06 1.23-0.172 1.23-0.172 2.48-0.347 4.77-0.613 9-0.814 13.7 0.351 2 3 2 3 2 6 1.52-0.773 1.52-0.773 3.06-1.56 3.9-1.7 6.78-1.37 10.9-0.438 0.103-0.784 0.206-1.57 0.312-2.38 0.688-2.62 0.688-2.62 3.69-4.62 2.59-0.317 5.08-0.517 7.69-0.625 0.787-0.0372 1.57-0.0744 2.39-0.113 10.6-0.447 21.3-0.423 31.9-0.262zm181 1114v2c0.66-0.33 1.32-0.66 2-1-0.66-0.33-1.32-0.66-2-1z" fill="#FCFCFC"/>
<path transform="translate(612,799)" d="m0 0c2.17 0.308 4.35 0.586 6.52 0.848 5.86 0.74 11.7 1.68 17.5 2.77 0.775 0.146 1.55 0.291 2.35 0.442 1.61 0.303 3.21 0.606 4.82 0.909 17.2 3.23 34.3 5.83 51.9 7.03 1.13 0.079 1.13 0.079 2.29 0.16 4.59 0.271 9.13 0.155 13.7-0.16 1.01-0.0696 2.03-0.139 3.08-0.211 18.5-1.38 36.4-4.36 54.5-8.11 6.87-1.37 13.7-2.61 20.7-3.11 4.49-0.356 8.78-1.14 13.2-2.06 14.9-3.08 29.3-3.36 44.2-0.438 1.16 0.222 2.32 0.444 3.52 0.672 11.1 2.19 21.8 5.13 32.6 8.35 3.15 0.934 6.3 1.84 9.46 2.74 9.83 2.82 19.6 5.74 29.3 9.07 3.41 1.12 6.83 2.06 10.3 2.98 5.35 1.5 10.4 3.37 15.5 5.56 0.65 0.276 1.3 0.553 1.97 0.837 4.64 2.07 8.6 4.56 12.6 7.73v2c0.58 0.24 1.16 0.48 1.76 0.727 9.02 5.12 14.8 17.8 17.5 27.4 0.405 1.52 0.803 3.04 1.19 4.56 0.214 0.826 0.429 1.65 0.65 2.5 2.37 9.32 4.27 18.7 6.06 28.2 0.259 1.36 0.259 1.36 0.522 2.75 3.07 16.3 5.22 32.4 6.35 48.9 0.0783 1.03 0.157 2.06 0.237 3.12 1.84 24.8-0.689 49.9-17.3 69.7-0.634 0.706-1.27 1.41-1.92 2.14-0.717 0.81-1.43 1.62-2.17 2.45-13.1 13.9-30.2 21.7-48.4 26.7-1.21 0.342-2.43 0.683-3.68 1.04-10.2 2.78-20.3 4.65-30.8 5.78-1.05 0.129-2.1 0.258-3.18 0.391-2.61 0.287-5.2 0.479-7.82 0.609-1.02 0.0529-2.05 0.106-3.1 0.16-21.9 0.578-38.4-4.58-54.5-19.6-0.784-0.846-1.57-1.69-2.38-2.56-0.615-0.656-1.23-1.31-1.86-1.99-3.98-4.34-7.47-8.75-10.7-13.7-1.54-2.38-3.15-4.68-4.8-6.98-3.62-5.14-7.01-10.4-10.4-15.7-3.78-5.91-7.72-11.7-11.6-17.5-16.7-24.9-16.7-24.9-23.8-36.6-0.478-0.795-0.956-1.59-1.45-2.41-4.36-7.39-4.36-7.39-5.43-11 0.33-0.99 0.66-1.98 1-3 6.95 8 12.9 16.5 18.8 25.3 2.7 3.99 5.45 7.93 8.26 11.8 0.399 0.555 0.797 1.11 1.21 1.68 0.817 1.14 1.63 2.27 2.45 3.41 2.36 3.29 4.69 6.6 7.03 9.91 0.495 0.701 0.99 1.4 1.5 2.12 3.4 4.83 6.79 9.67 10.2 14.5 8.16 11.7 8.16 11.7 16.6 23.2 0.629 0.846 1.26 1.69 1.91 2.56 9.94 12.9 21.3 21.6 37.5 25 6.85 0.87 13.7 0.68 20.6 0.457-3.04-2.03-4.31-2.33-7.81-2.81-16.6-2.86-31.2-10.4-41.3-24-1.92-2.75-3.8-5.53-5.66-8.33-1.73-2.58-3.5-5.14-5.27-7.7-5.75-8.31-11.4-16.7-17-25.1-0.999-1.5-2-3-3-4.5-5.17-7.76-10.3-15.5-15.5-23.3-0.41-0.615-0.82-1.23-1.24-1.86-0.831-1.25-1.66-2.49-2.49-3.74-2.06-3.1-4.13-6.19-6.21-9.26-4.96-7.34-9.69-14.8-14.3-22.4-4.85-7.99-9.84-15.9-14.9-23.8-1.32-2.08-2.62-4.17-3.91-6.27-7-11.3-13.5-19.1-26.9-22.6-9.05-1.32-18.2-1.21-26.6 2.62-0.65 0.255-1.3 0.51-1.97 0.773-11.2 4.85-17.9 14.3-23.9 24.4-1.76 2.92-3.62 5.77-5.48 8.63-0.75 1.17-1.5 2.33-2.25 3.5-3.51 5.45-7.03 10.9-10.6 16.3-1.85 2.86-3.7 5.72-5.54 8.58-6.22 9.66-12.6 19.2-18.9 28.8-1.82 2.72-3.64 5.45-5.46 8.18l-6.23 9.35c-0.411 0.617-0.822 1.23-1.25 1.87-0.846 1.27-1.69 2.54-2.54 3.81-2.15 3.22-4.3 6.45-6.43 9.69-4.38 6.63-8.84 13.2-13.6 19.6-1.82 2.48-3.56 5-5.3 7.54-12.8 18.3-25 25.4-46.6 30h-2v2c13.2 0.839 27.9-0.508 38.7-8.83 6.45-5.99 11.9-11.9 16.8-19.3 0.559-0.831 1.12-1.66 1.69-2.52 3.97-5.93 7.85-11.9 11.7-18 5.04-7.9 10.2-15.7 15.7-23.3 3.46-4.89 6.6-9.96 9.75-15.1 3.03-4.88 6.16-9.67 9.37-14.4 7.92-11.8 15.7-23.7 23.1-35.9 0.437-0.718 0.875-1.44 1.33-2.17 2.26-3.73 4.49-7.48 6.69-11.2 8.08-13.7 16.1-26.2 32.1-31.2 6.03-1.39 9.78-1.33 15.1 1.91 0.33 0.66 0.66 1.32 1 2-1.24-0.0825-2.48-0.165-3.75-0.25-9.25 0.0582-17.6 3.25-24.2 9.75-6.29 7.76-9.2 16.8-12 26.2-2 6.78-4.28 12-8.79 17.5-2.83 3.49-5.32 7.15-7.84 10.9-0.951 1.39-1.9 2.78-2.86 4.17-0.672 0.981-0.672 0.981-1.36 1.98-1.52 2.21-3.06 4.4-4.6 6.6-9.07 12.9-17.9 26-26.6 39.2-3.1 4.69-6.24 9.34-9.58 13.9-3.41 4.63-6.63 9.36-9.84 14.1-13.1 19.5-27.1 38.6-51.5 43.5-26.2 4.28-52.9-0.886-78.1-8.49-0.691-0.202-1.38-0.404-2.09-0.612-19.1-5.68-39.8-19.3-50.4-36.5-12.8-24.8-13.4-47.5-10.5-74.6 0.161-1.54 0.161-1.54 0.325-3.11 1.58-14.9 3.71-29.5 6.68-44.1 0.242-1.21 0.242-1.21 0.488-2.44 4.8-23.7 10.9-47 32.2-61.1 0.779-0.486 1.56-0.972 2.36-1.47 0.802-0.508 1.6-1.02 2.43-1.54 8.2-4.66 17.4-7.06 26.5-9.36 4.54-1.18 8.99-2.64 13.5-4.1 6.67-2.16 13.3-3.95 20.2-5.47 4.48-1.01 8.82-2.24 13.2-3.65 27-8.64 59.5-16.1 87.3-6.89z" fill="#FCFCFC"/>
<path transform="translate(605 778)" d="m0 0c4.88 0.921 9.78 1.54 14.7 2.16 16 2.07 31.9 5.02 47.6 8.24 31.5 6.16 63.9 1.64 95-4.36 7.83-1.5 15.7-2.67 23.6-3.79 3.14-0.463 6.27-0.967 9.41-1.47 35.2-5.61 65.2 1.15 99.1 11.1 3.85 1.13 7.72 2.22 11.6 3.3 80.5 22.6 80.5 22.6 98.7 54.5 12.1 21.8 13.2 46.6 14.6 71.1 0.0938 1.55 0.0938 1.55 0.19 3.14 0.949 16.1 1.44 32.1 1.5 48.2 0.0116 1.42 0.0116 1.42 0.0235 2.88 0.179 27.6-3.37 54.1-22.7 75.2-17.9 17.2-39.1 24-62.7 29.6-0.684 0.177-1.37 0.354-2.07 0.536-8 1.98-16.2 2.71-24.4 3.59-0.828 0.089-1.66 0.178-2.51 0.27-12 1.27-24 1.99-36.1 1.98-0.672 0.00163-1.34 0.00326-2.03 0.00494-22.2-0.00616-41-6.26-57.4-21.8-9.25-9.73-16.5-20.9-23.8-32.1-3.53-5.35-7.18-10.6-10.9-15.8-7.71-11-15.1-22.1-22.4-33.4-3.2-5-6.5-9.95-9.81-14.9-2.41-3.59-4.74-7.22-7.03-10.9-3.67-5.82-7.75-11.3-11.9-16.8-2.36-3.17-4.63-6.41-6.89-9.66-4.17-5.72-8.62-10.2-14.8-13.7-5.67-0.591-9.61 2.63-14 5.95-3.08 2.62-5.23 5.55-7.46 8.92-0.781 1.16-1.56 2.33-2.34 3.49-1.1 1.65-1.1 1.65-2.22 3.32-1.14 1.63-2.29 3.25-3.44 4.88-4.2 5.98-8.22 12.1-12.3 18.2-2.09 3.16-4.2 6.31-6.3 9.46-0.833 1.25-1.67 2.5-2.5 3.75-1.67 2.5-3.33 5-5 7.5-0.413 0.619-0.825 1.24-1.25 1.88-0.831 1.25-1.66 2.49-2.49 3.74-2.12 3.18-4.25 6.37-6.36 9.56-4.2 6.33-8.44 12.6-12.8 18.8-1.56 2.23-3.08 4.49-4.58 6.76-2.54 3.84-5.17 7.61-7.83 11.4-1.74 2.5-3.43 5.02-5.12 7.56-13.6 20.4-27.7 36.1-52.4 42.4-18.6 3.37-38.6 1.72-57.3-0.535-2.37-0.279-4.75-0.52-7.12-0.75-29.9-2.95-66.1-10.3-87.1-33.6-1.05-1.3-2.1-2.61-3.12-3.94-0.486-0.566-0.972-1.13-1.47-1.71-16.2-19.7-18.9-45.8-18.8-70.4 8.26e-4 -0.806 0.00165-1.61 0.0025-2.44 0.0362-15.8 0.792-31.5 1.68-47.3 0.063-1.13 0.126-2.25 0.191-3.42 2.01-35.2 2.01-35.2 5.56-48.3 0.21-0.781 0.421-1.56 0.637-2.37 5.88-20.5 18.6-37.5 37.3-47.9 2.62-1.42 5.27-2.79 7.94-4.12 0.935-0.469 1.87-0.938 2.83-1.42 2.69-1.27 5.41-2.44 8.17-3.58 0.609-0.255 1.22-0.509 1.85-0.771 12.8-5.3 25.9-9.36 39.2-13.2 1.36-0.4 1.36-0.4 2.75-0.809 10.5-3.1 21.1-5.99 31.8-8.54 3.1-0.749 6.05-1.48 9.01-2.67 3.56-1.41 7.22-2.09 11-2.85 1.25-0.253 1.25-0.253 2.52-0.511 1.76-0.357 3.53-0.711 5.29-1.06 2.64-0.54 5.27-1.12 7.91-1.7 16.8-3.61 32.3-3.89 49.1-0.695zm-44 19c-1.22 0.226-2.45 0.453-3.71 0.686-9.22 1.75-18.3 3.88-27.3 6.45-2.65 0.748-5.3 1.47-7.95 2.18-8.85 2.39-17.7 4.82-26.5 7.37-3.29 0.947-6.6 1.85-9.91 2.75-24.9 6.81-46.4 13.6-60.1 37.1-5.85 11.8-8.45 24.9-11 37.7-0.171 0.843-0.342 1.69-0.519 2.55-3.28 16.2-5.66 32.5-7.42 48.9-0.174 1.57-0.174 1.57-0.351 3.18-0.648 5.93-1.22 11.9-1.65 17.8-0.0735 1.01-0.147 2.02-0.223 3.05-0.513 14.7 3.12 28.7 9.22 41.9 0.367 0.9 0.735 1.8 1.11 2.73 3.37 7.72 9.01 13.4 14.9 19.3 0.66 0.66 1.32 1.32 2 2 25.6 23.8 67.7 31.8 102 31.2 15.9-0.584 28.9-5.04 41.3-15.2 0.969-0.722 1.94-1.44 2.94-2.19 10.7-9.23 18.2-22.5 26.1-34 1.87-2.72 3.77-5.43 5.66-8.13 2.44-3.48 4.84-6.98 7.19-10.5 1.02-1.53 1.02-1.53 2.05-3.09 1.26-1.9 2.51-3.79 3.77-5.69 4.55-6.86 9.17-13.7 13.8-20.5 0.625-0.918 1.25-1.84 1.89-2.78 3.62-5.3 7.26-10.6 10.9-15.8 2.23-3.18 4.45-6.36 6.65-9.56 1.38-1.92 2.83-3.79 4.33-5.61 6.55-8.14 9.84-16.4 12.8-26.4 3.03-10.2 7.56-19.8 16.9-25.7 7.01-3.22 13.3-4.51 21-4-2.25-3.38-3.69-4-7.6-4.84-9.48-0.647-18.7 4.75-25.6 10.7-7.3 7.45-12.1 16.7-17.3 25.6-2.11 3.6-4.3 7.14-6.52 10.7-0.603 0.961-0.603 0.961-1.22 1.94-6.87 10.9-13.9 21.7-21.1 32.4-4.7 7.02-9.25 14.1-13.8 21.3-4.23 6.63-8.51 13.2-13.1 19.6-2 2.9-3.89 5.85-5.78 8.83-28.6 44.7-28.6 44.7-46.4 49.7-8.31 1.68-16.1 2.44-24.6 2.05v-2c1.07-0.13 1.07-0.13 2.17-0.262 8.16-1.15 15.3-3.51 22.8-6.74l2.25-0.828c10.2-4.2 16.8-15.3 22.8-24.2 1.16-1.67 2.33-3.34 3.5-5 0.872-1.25 0.872-1.25 1.76-2.52 1.12-1.6 2.25-3.21 3.38-4.8 4.81-6.82 9.44-13.8 14.1-20.7 2.09-3.16 4.2-6.31 6.3-9.46 0.833-1.25 1.67-2.5 2.5-3.75 5-7.5 5-7.5 6.25-9.38 0.831-1.25 1.66-2.49 2.49-3.74 2.12-3.18 4.24-6.35 6.36-9.52 4.89-7.31 9.69-14.7 14.4-22.1 1.43-2.25 2.87-4.5 4.31-6.75 0.376-0.587 0.753-1.17 1.14-1.78 3.2-4.97 6.5-9.88 9.81-14.8 2.56-3.82 4.94-7.7 7.23-11.7 7.01-12.1 15.3-20 28.5-25 11.5-2.86 23.8-1.64 34.1 4.12 9.72 6.68 15 16.7 20.8 26.7 2.76 4.69 5.65 9.27 8.64 13.8 3.85 5.87 7.56 11.8 11.2 17.8 3.32 5.48 6.71 10.8 10.5 16 2.27 3.2 4.44 6.45 6.61 9.72 0.42 0.632 0.84 1.26 1.27 1.91 0.864 1.3 1.73 2.6 2.59 3.9 2.23 3.36 4.46 6.71 6.7 10.1 1.18 1.77 2.36 3.54 3.54 5.3 1.03 1.55 2.06 3.09 3.09 4.64 1.4 2.1 2.79 4.2 4.19 6.3 5.73 8.64 11.5 17.2 17.5 25.7 0.899 1.3 1.79 2.59 2.69 3.89 13.6 19.8 28.4 28.9 51.9 33.6 1.75 0.438 1.75 0.438 2.75 1.44-18.5 0.825-33.5-1.77-48-14.1-10.1-9.43-17.6-21.5-25.5-32.7-2.5-3.57-5.02-7.13-7.53-10.7-1-1.42-2.01-2.84-3.01-4.26-1.97-2.8-3.95-5.59-5.92-8.38-4.85-6.86-9.68-13.7-14.5-20.6-10.3-15-10.3-15-21.6-29.2-1.29 2.87-1.29 2.87-0.242 5.18 7.3 14.4 16.1 28 25.3 41.2 2.98 4.27 5.85 8.6 8.64 13 3.1 4.87 6.29 9.65 9.64 14.3 1.92 2.73 3.76 5.5 5.61 8.28 5.53 8.1 11.1 16.1 17 24 0.602 0.816 1.2 1.63 1.82 2.47 12.4 14.4 28.6 20.8 47.2 22.5 10.4 0.688 20.7-0.515 31-2 0.663-0.0912 1.33-0.182 2.01-0.276 19.5-2.75 38.9-7.81 56-17.7 0.976-0.53 1.95-1.06 2.96-1.61 18.6-10.8 29.5-28.8 35.8-48.9 0.607-2.52 0.944-4.96 1.22-7.53 0.144-1.25 0.289-2.5 0.438-3.79 2.48-27.1-2.28-55.7-7.44-82.2-0.134-0.696-0.269-1.39-0.407-2.11-0.859-4.44-1.74-8.87-2.65-13.3-0.289-1.41-0.576-2.82-0.86-4.23-2.73-13.5-6.45-25.5-15.1-36.4-0.565-0.717-1.13-1.43-1.71-2.17-1.36-1.66-2.82-3.26-4.29-4.83h-2v-2c-10.5-8.32-23.2-12.7-36-15.9-4.25-1.09-8.37-2.5-12.5-3.93-7.61-2.61-15.3-4.81-23.1-6.87-4.52-1.2-9.02-2.43-13.5-3.79-9.87-2.99-19.7-5.4-29.9-7.34-1.1-0.215-2.19-0.431-3.32-0.653-10.1-1.85-20.1-2.09-30.3-0.597-1.26 0.183-2.52 0.366-3.82 0.555-3.92 0.629-7.82 1.34-11.7 2.08-3.18 0.554-6.37 0.965-9.58 1.37-6.59 0.854-13.1 1.92-19.7 3.06-1 0.174-2 0.349-3.04 0.529-4.18 0.736-8.35 1.48-12.5 2.35-18.6 3.85-39 6.48-58 5.18-1.38-0.0885-1.38-0.0885-2.78-0.179-18.4-1.3-36.4-4.49-54.4-8.04-7.87-1.54-15.6-3.05-23.6-3.6-3.15-0.261-6.16-0.947-9.24-1.68-14.7-3.28-28.8-3.13-43.6-0.312z" fill="#0D0F0F"/>
<path transform="translate(722 948)" d="m0 0c6.74 4.2 10.8 14 15 20.7 5.01 8.08 10.2 16 15.4 24 1.69 2.59 3.37 5.18 5.05 7.78 5.52 8.51 11.1 17 16.7 25.4 2.03 3.03 4.04 6.07 6.05 9.12 11.8 18.1 11.8 18.1 24.9 35.3 0.781 0.986 1.56 1.97 2.37 2.99 6.6 7.87 15.6 13.9 24.7 18.4 0.599 0.305 1.2 0.611 1.82 0.925 2.01 0.964 4.05 1.81 6.12 2.64 0.864 0.36 1.73 0.719 2.62 1.09 10.6 3.86 21.2 3.56 32.3 3.47 1.01-0.0016 2.02-0.0032 3.06-0.00485 16.5-0.0459 32.2-1.5 48.3-5.21 3.11-0.397 5.65 0.00798 8.71 0.655-10 20.9-29.1 39.1-50.9 47.1-24.8 8.51-50.1 2.58-72.9-8.42-6.33-3.12-12.5-6.51-18.6-9.98-9.81-5.53-19.8-10.7-30.2-15-1.09-0.461-2.17-0.923-3.29-1.4-11.2-3.82-23.4-3.53-35.1-3.49-1.6-0.00135-3.21-0.0033-4.81-0.0058-3.34-0.00292-6.67 0.00126-10 0.0107-4.23 0.0114-8.47 0.00482-12.7-0.00714-3.3-0.0073-6.61-0.00489-9.91 2.56e-4 -1.56 0.00131-3.12-2.33e-4 -4.68-0.00496-12.5-0.0295-25.5 0.0831-37.2 4.65-1.06 0.4-2.12 0.799-3.21 1.21-8.74 3.62-17.1 7.77-25.5 12.2-1.21 0.631-2.43 1.26-3.64 1.89-4.98 2.59-9.96 5.18-14.9 7.81-23.5 12.4-49.4 19.1-75.6 11.4-11.3-4.09-21.9-9.72-30.8-17.9-1.34-1.22-1.34-1.22-2.7-2.46-5.2-4.96-9.71-10.1-13.9-15.9-0.426-0.583-0.852-1.17-1.29-1.77-2.25-3.22-3.78-5.9-4.08-9.86 0.33-0.33 0.66-0.66 1-1 6.71 0.139 13.3 1.18 19.8 2.51 12.9 2.53 25.7 2.93 38.8 2.99 0.897 0.0101 1.79 0.0202 2.72 0.0305 24.4 0.223 44.9-7.02 62.6-24.3 6.07-6.21 10.9-13.1 15.6-20.4 2.45-3.83 5.06-7.54 7.68-11.3 2.89-4.13 5.7-8.32 8.49-12.5 0.603-0.905 1.21-1.81 1.83-2.74 4.99-7.52 9.82-15.1 14.6-22.8 2.79-4.44 5.64-8.85 8.5-13.2 3.51-5.4 6.97-10.8 10.4-16.3 3.61-5.8 7.25-11.6 10.9-17.3 0.461-0.724 0.922-1.45 1.4-2.19 0.435-0.675 0.87-1.35 1.32-2.04 0.381-0.595 0.763-1.19 1.16-1.8 1.28-1.77 2.51-3.24 4.19-4.65 3.77 0 5.46 0.501 8.25 3.06 4.8 8.06 4.35 17.8 4.81 26.9 0.0828 1.53 0.166 3.05 0.25 4.58 0.242 4.49 0.467 8.99 0.688 13.5 0.0607 1.22 0.121 2.44 0.184 3.69 0.686 14.1 0.95 28.2 0.816 42.3-1.06 0.496-2.12 0.993-3.22 1.5-10.4 4.98-10.4 4.98-19.4 12.2-1.38 1.25-1.38 1.25-3.38 1.25-0.259 0.579-0.518 1.16-0.785 1.75-1.31 2.41-2.8 4.17-4.65 6.18-4.71 4.87-4.71 4.87-6.56 11.1 3.62-0.567 5.13-1.83 7.54-4.54 0.658-0.724 1.32-1.45 1.99-2.19 1.04-1.16 1.04-1.16 2.09-2.33 18.8-20.5 18.8-20.5 32.3-21.1 1.01 0.00258 2.02 0.00516 3.06 0.00781 1.01-0.00258 2.02-0.00516 3.06-0.00781 2.75 0.125 5.26 0.512 7.94 1.13-0.722-0.433-1.44-0.866-2.19-1.31-2.6-1.56-5.21-3.12-7.81-4.69 0.24-7.82 0.484-15.6 0.73-23.5 0.115-3.63 0.228-7.27 0.34-10.9 0.108-3.52 0.218-7.04 0.331-10.6 0.0621-1.97 0.122-3.94 0.181-5.91 0.207-6.42 0.477-12.8 0.874-19.2 0.0735-1.19 0.147-2.38 0.223-3.61 0.611-6.27 1.76-11.4 5.76-16.3 5.58-4.36 5.58-4.36 8.49-3.29z" fill="#0C0E0E"/>
<path transform="translate(1066,996)" d="m0 0c0.99 0.33 1.98 0.66 3 1 0.047 7.96 0.0822 15.9 0.104 23.9 0.0103 3.7 0.0242 7.4 0.0473 11.1 0.104 17.1-0.0579 34-2.15 51-0.146 1.23-0.292 2.46-0.443 3.72-0.391 3.04-0.83 6.07-1.31 9.09-0.254 1.61-0.254 1.61-0.513 3.26-8.38 51.1-29 100-64.7 138-1.08 1.18-2.16 2.37-3.24 3.55-21.4 23.4-47 43-75.2 57.6-1.06 0.551-2.12 1.1-3.21 1.67-15.7 8.01-32 14.7-48.4 21.1-1.16-3.7-0.527-6.04 0.493-9.76 2.86-12.6 1.06-27.3-5.33-38.5-4.17-6.48-8.68-13.5-15.2-17.8 0.114-1.84 0.114-1.84 1-4 2.64-1.32 2.64-1.32 6.18-2.48 0.633-0.214 1.27-0.428 1.92-0.648 1.36-0.459 2.72-0.912 4.09-1.36 3.58-1.18 7.14-2.41 10.7-3.65 0.706-0.244 1.41-0.489 2.14-0.74 19.5-6.8 38.7-16.3 55-29.1l2.71-2.1c4.36-3.42 8.48-6.87 12.3-10.9 5-5 5-5 6.58-6.52 4.21-4.1 7.87-8.38 11.4-13.1 0.777-1.05 0.777-1.05 1.57-2.12 13.4-18.4 22-38.5 28.5-60.3 0.205-0.685 0.409-1.37 0.62-2.08 2.16-7.47 3.42-14.9 4.26-22.6 0.0776-0.686 0.155-1.37 0.235-2.08 0.39-3.46 0.749-6.92 1.05-10.4 0.908-8.52 2.46-13.1 8.83-18.9 13.5-15.7 21.2-31.3 26-51.4 0.233-0.96 0.466-1.92 0.707-2.91 0.304-1.3 0.304-1.3 0.614-2.62 0.683-2.12 0.683-2.12 2.68-4.12 1.97-0.271 1.97-0.271 4.36-0.309 0.869-0.0251 1.74-0.0503 2.63-0.0762 1.82-0.0349 3.65-0.0662 5.47-0.0938 5.41-0.164 10.5-0.436 14.5-4.52z" fill="#0D0F0F"/>
<path transform="translate(891 484)" d="m0 0c1.15 0.23 2.31 0.46 3.49 0.697 6.47 1.3 12.9 2.69 19.3 4.25 3.63 0.808 7.27 1.46 10.9 2.11 27.4 4.95 27.4 4.95 36.4 13.6 0.504 0.477 1.01 0.954 1.53 1.45 9.57 10.1 14.8 24.4 20.3 37 1.85 4.21 3.75 8.4 5.64 12.6 0.761 1.69 1.52 3.39 2.28 5.08 1.38 3.08 2.78 6.15 4.19 9.22 11.4 25 22 50.4 32.1 75.9 3.05 7.7 6.23 15.3 9.61 22.9 0.431 0.968 0.861 1.94 1.3 2.93 0.41 0.896 0.82 1.79 1.24 2.71 0.758 2.29 0.758 2.29-0.242 5.29-0.66-0.66-1.32-1.32-2-2-12.7-4.88-26.8-4.81-39.2 0.617-2.46 1.21-4.89 2.47-7.31 3.76-3.78 1.76-4.66 1.64-8.5 0.625-0.14-0.683-0.28-1.37-0.424-2.07-7.77-37.3-23.1-68.9-55.6-90.6-8.26-5.28-17.1-9.5-26.1-13.4-12.3-5.28-21.9-10.5-28-22.9-0.55-1.07-1.1-2.13-1.67-3.23-7.42-15-19.7-40.2-14.1-56.9 1.83-4.41 4.22-7.53 7.81-10.7 8.33-3.37 18.3-0.627 26.8 1.12z" fill="#0C0E0E"/>
<path transform="translate(745 715)" d="m0 0c1.09 0.087 2.17 0.174 3.29 0.263 11 0.893 22 1.88 32.9 3.44 3.44 0.474 6.88 0.811 10.3 1.11 45.2 3.88 90.7 16.7 122 51.6 1.29 1.89 1.76 3.48 2.17 5.72-6.34-0.62-12.2-2.01-18.3-3.75-1.96-0.545-3.92-1.09-5.88-1.63-0.976-0.272-1.95-0.545-2.96-0.825-27.5-7.7-27.5-7.7-55.8-10.8-0.981-0.04-1.96-0.0799-2.97-0.121-3.35-0.0751-6.67-1.27e-4 -10 0.121-0.714 0.0237-1.43 0.0474-2.16 0.0718-15 0.61-29.6 3.16-44.3 5.8-47.7 8.51-89.9 8.73-137 0-37.1-6.8-71.9-8.09-108 3.09-5.72 1.65-11.5 2.96-17.3 4.29-3.62 0.84-7.14 1.7-10.7 2.89-3.28 1.08-6.19 0.997-9.62 0.859-0.495-1.49-0.495-1.49-1-3h2c0.393-0.88 0.393-0.88 0.793-1.78 2.84-5.23 7.89-9.64 13.2-12.2h2v2c11.6-2.53 11.6-2.53 22.9-6 13.4-4.66 27.7-6.72 41.7-9.07 1.79-0.308 3.58-0.617 5.38-0.93 0.937-0.162 1.87-0.324 2.84-0.491 0.898-0.165 1.8-0.331 2.72-0.501 0.806-0.146 1.61-0.291 2.44-0.441 2.21-0.451 2.21-0.451 4-2.57 0.167-3.08 0.167-3.08 0-6-3.33-1-6.36-1.13-9.83-1.13-1.69-0.00193-1.69-0.00193-3.42-0.00391-1.17 0.00387-2.35 0.00773-3.56 0.0117-1.75-0.0058-1.75-0.0058-3.53-0.0117-5.66 0.00644-11.1 0.112-16.7 1.14 0.495-1.49 0.495-1.49 1-3 19.9-8.8 44.2-12.9 65.8-13.7 4.32-0.165 8.49-0.548 12.8-1.23 9.6-1.49 19.3-2.1 29-2.8 3.53-0.263 7.06-0.545 10.6-0.829 25.2-1.97 49.5-1.57 74.6 0.445z" fill="#0C0E0E"/>
<path transform="translate(751,105)" d="m0 0c0.742 6.06 1.18 12 1.31 18.1 0.0213 0.873 0.0425 1.75 0.0645 2.65 0.0697 2.9 0.134 5.8 0.198 8.71 0.0491 2.09 0.0985 4.18 0.148 6.27 0.134 5.66 0.262 11.3 0.39 17 0.135 5.92 0.274 11.8 0.412 17.8 0.262 11.2 0.519 22.4 0.776 33.6 0.292 12.8 0.588 25.5 0.885 38.3 0.61 26.2 1.21 52.4 1.82 78.7-13.4 0.495-13.4 0.495-27 1-0.606-5.46-1.13-10.4-1.2-15.9-0.0182-1.29-0.0364-2.58-0.0552-3.91-0.0153-1.4-0.0306-2.81-0.0458-4.21-0.0195-1.5-0.0393-3-0.0596-4.5-0.0535-4.04-0.102-8.09-0.149-12.1-0.0502-4.24-0.105-8.47-0.16-12.7-0.103-8.01-0.201-16-0.297-24-0.11-9.12-0.225-18.2-0.341-27.4-0.238-18.8-0.469-37.5-0.696-56.3h-2c-0.107 0.545-0.213 1.09-0.323 1.65-1.18 5.67-2.85 10.9-4.93 16.3-0.635 1.69-1.27 3.38-1.9 5.07-0.314 0.835-0.629 1.67-0.953 2.53-1.28 3.43-2.5 6.88-3.71 10.3-2.82 8.05-5.69 16.1-8.56 24.1-0.229 0.641-0.458 1.28-0.694 1.94-1.31 3.66-2.62 7.33-3.93 11h-6c-0.246-0.604-0.493-1.21-0.747-1.83-1.15-2.81-2.29-5.61-3.44-8.42-0.387-0.949-0.775-1.9-1.17-2.88-2.01-4.93-4.04-9.85-6.09-14.8-2.74-6.57-5.43-13.2-8.11-19.7-0.703-1.72-0.703-1.72-1.42-3.48-2.7-6.62-5.37-13.2-8.02-19.9-1.07 3.2-1.06 5.25-0.93 8.6 0.0407 1.17 0.0814 2.33 0.123 3.53 0.0503 1.28 0.101 2.56 0.153 3.88 0.0496 1.36 0.0987 2.72 0.147 4.09 0.106 2.94 0.215 5.87 0.327 8.81 0.178 4.66 0.348 9.32 0.516 14 0.299 8.23 0.605 16.5 0.912 24.7 0.461 12.3 0.916 24.7 1.37 37 0.168 4.61 0.34 9.23 0.514 13.8 0.534 14.2 1.03 28.4 0.872 42.6h-27c-0.975-18.3-1.46-36.5-1.91-54.8-0.0862-3.5-0.174-6.99-0.261-10.5-0.207-8.29-0.411-16.6-0.614-24.9-0.206-8.43-0.418-16.9-0.632-25.3-0.186-7.33-0.368-14.7-0.548-22-0.106-4.34-0.214-8.67-0.325-13-0.611-23.9-0.812-47.7-0.71-71.6h24c0.996 2.42 0.996 2.42 2.01 4.9 0.892 2.16 1.78 4.32 2.68 6.48 0.653 1.59 0.653 1.59 1.32 3.21 2.38 5.74 4.91 11.3 7.74 16.9 2.42 4.92 4.47 10 6.57 15.1 3.38 8.05 6.77 16.1 10.3 24.1 0.33 0.749 0.661 1.5 1 2.27 1.32 3.32 1.32 3.32 3.37 6.17 5.63-13.9 10.9-27.9 16-42 4.76-13.1 9.51-26.2 15-39 3.25-0.197 6.5-0.381 9.75-0.562 0.92-0.0561 1.84-0.112 2.79-0.17 0.889-0.0483 1.78-0.0967 2.7-0.146 0.817-0.0471 1.63-0.0943 2.48-0.143 2.28 0.0216 4.1 0.434 6.29 1.02z" fill="#000102"/>
<path transform="translate(407,179)" d="m0 0v2c0.86-0.0683 1.72-0.137 2.61-0.207 4.06 0.248 6.23 1.43 9.71 3.52 1.05 0.615 2.1 1.23 3.18 1.86 2.51 1.82 2.51 1.82 3.51 4.82 1.33 0.355 2.66 0.686 4 1 8.86 7.58 14.1 19.7 16 31 0.976 14.3-1.26 26.7-9 39-0.33 0.66-0.66 1.32-1 2 1.16 0.193 2.32 0.387 3.51 0.586 1.54 0.263 3.08 0.526 4.62 0.789 0.761 0.126 1.52 0.253 2.3 0.383 4.35 0.75 8.41 1.71 12.6 3.24v2c0.804 0.0206 1.61 0.0412 2.44 0.0625 5.08 1.34 8.8 4.31 12.6 7.94v2c0.888 0.364 0.888 0.364 1.79 0.734 8.73 5.01 14.1 19.3 17.3 28.4 4.61 17.2 2.7 35.4-6.11 50.8h-2c-0.371 0.804-0.371 0.804-0.75 1.62-2.98 5.66-6.02 9.27-11.2 12.9-2.07 1.44-2.07 1.44-3.74 3.41-3.11 2.88-6.59 4.5-10.4 6.34-0.728 0.364-1.46 0.727-2.21 1.1-5.39 2.65-5.39 2.65-7.67 2.65v2c-0.606 0.159-1.21 0.317-1.84 0.48-5.77 1.61-10.8 3.71-16 6.63-2.13 0.891-2.13 0.891-5.13-0.109-3.55-5.2-5.52-10.9-7.72-16.7-1.44-3.66-3.14-7.08-4.95-10.6-1.66-3.33-3.17-6.71-4.65-10.1-0.512-1.17-1.02-2.35-1.55-3.56-1.14-3-1.14-3-1.14-6h-2c-0.473-1.22-0.946-2.45-1.43-3.71-3.61-9.22-7.39-18.3-11.7-27.2-4.38-9.08-8.51-18.3-12.7-27.5-4.13-9.22-4.13-9.22-8.53-18.3-1.34-2.65-2.5-5.22-3.54-7.99-1.93-4.94-4.13-9.72-6.37-14.5-2.43-5.23-4.78-10.5-7.14-15.8-2.08-4.64-4.18-9.27-6.31-13.9-0.447-0.973-0.894-1.95-1.35-2.95-0.859-1.87-1.72-3.73-2.59-5.6-2.5-5.44-4.6-10.9-6.36-16.6 1.72-1.01 3.45-2.01 5.19-3 0.963-0.557 1.93-1.11 2.92-1.69 2.94-1.33 4.71-1.59 7.89-1.31v-2c2.87-1.35 5.74-2.68 8.62-4 0.808-0.382 1.62-0.763 2.45-1.16 4.48-2.04 7.89-3.37 12.9-2.84v-2c10.9-2.24 20.1-1.71 31 0zm-35 30c2 6.87 4.87 13.1 7.95 19.6 2.47 5.17 4.75 10.4 6.91 15.7 1.92 4.64 4.03 9.19 6.14 13.8 0.816 1.77 0.816 1.77 1.65 3.58 1.45 3.14 2.9 6.28 4.35 9.42h4v-2c1.11-0.157 1.11-0.157 2.25-0.316 5.5-1.37 9.37-5.5 12.3-10.2 5.27-10.2 5.43-19 2.26-29.9-0.85-2.57-1.82-5.07-2.85-7.58h-2c-0.0619-0.536-0.124-1.07-0.188-1.62-1.22-3.58-3.2-5.63-5.81-8.38h-3c-0.495-1.49-0.495-1.49-1-3-11.1-6.71-21.9-4.53-33 1zm39 86c1.98 6.4 4.43 12.4 7.25 18.5 0.881 1.91 1.76 3.83 2.64 5.74 0.487 1.06 0.973 2.11 1.47 3.2 1.86 4.06 3.71 8.12 5.56 12.2 0.337 0.742 0.673 1.48 1.02 2.25 1.36 2.99 2.71 5.98 4.07 8.97 0.955 2.11 1.91 4.21 2.87 6.31 0.429 0.947 0.429 0.947 0.867 1.91 1.37 3 2.76 5.99 4.26 8.92 7.99-1.03 7.99-1.03 14-6 1.12-0.836 2.25-1.67 3.38-2.5 5.84-5.05 9.09-11.6 10.1-19.2 0.242-8.18-0.918-14.9-4.51-22.3-0.486-1.01-0.972-2.02-1.47-3.06-5.06-9.57-12.2-16.5-22.5-19.9-9.74-2.68-20.6-0.473-29 5z" fill="#000102"/>
<path transform="translate(1044,172)" d="m0 0c3.66 1.43 7.24 2.99 10.8 4.62 0.976 0.446 1.95 0.892 2.96 1.35 0.736 0.338 1.47 0.675 2.23 1.02v2c0.869 0.0941 1.74 0.188 2.63 0.285 3.72 0.79 6.07 2.08 9.24 4.15 0.967 0.617 1.93 1.23 2.93 1.87 1.09 0.837 1.09 0.837 2.2 1.69v2c0.59 0.103 1.18 0.206 1.79 0.312 6.85 2.13 11.9 10.7 15.2 16.7 7.49 17.9 4.25 35.4-2 53h-2c-0.0954 0.722-0.191 1.44-0.289 2.19-0.818 3.24-2.11 5.14-4.09 7.81-1.82 2.47-3.53 4.82-4.97 7.53-6.61 9.89-20.7 14.6-31.7 17.5 0.205 0.58 0.41 1.16 0.621 1.76 0.269 0.781 0.539 1.56 0.816 2.37 0.267 0.766 0.534 1.53 0.809 2.32 8.14 27.6-3.6 61.7-10.2 88.6-0.296 1.2-0.593 2.41-0.898 3.64-1.68 6.79-3.38 13.6-5.1 20.4-1.65-0.727-1.65-0.727-3.33-1.47-3.45-1.59-3.45-1.59-6.42-2.03-2.25-0.5-2.25-0.5-3.54-1.83-2.23-2.17-4.66-3.4-7.4-4.86-0.994-0.53-1.99-1.06-3.01-1.61-0.759-0.398-1.52-0.797-2.3-1.21 1.34-7.82 2.99-15.5 4.81-23.2 12.2-39.6 12.2-39.6 8.19-78.8-2.64-3.1-4.14-4.71-8-6-0.367 1.21-0.367 1.21-0.742 2.45-1.52 4.29-3.41 8.33-5.38 12.4-0.399 0.836-0.798 1.67-1.21 2.53-3.13 6.53-6.33 13-9.59 19.5-1.94 3.85-3.87 7.7-5.79 11.5-0.702 1.41-1.4 2.81-2.11 4.22-0.359 0.718-0.717 1.44-1.09 2.17-1.79 3.58-3.58 7.16-5.37 10.7-0.703 1.41-1.41 2.81-2.11 4.22-3.2 6.41-6.41 12.8-9.61 19.2-2.64-0.66-5.28-1.32-8-2v-2c-0.763-0.206-1.53-0.413-2.31-0.625-5.19-1.93-9.88-4.65-14.7-7.38 1.43-4.7 3.38-8.96 5.62-13.3 2.9-5.7 5.69-11.4 8.38-17.2 2.45-5.28 5.02-10.5 7.81-15.6 3.98-7.31 7.55-14.8 11.1-22.3 3.61-7.61 7.33-15.2 11.1-22.7 1.66-3.29 3.3-6.59 4.95-9.89 0.663-1.33 1.33-2.65 1.99-3.98 0.33-0.659 0.659-1.32 0.999-2 3.86-7.72 7.72-15.4 11.6-23.2 0.385-0.772 0.771-1.54 1.17-2.34 0.957-1.91 1.92-3.82 2.88-5.73 2.95-5.85 5.82-11.7 8.56-17.6 3.71-8 7.61-15.9 11.6-23.8 1.16-2.32 2.32-4.64 3.47-6.96 0.739-1.48 1.48-2.96 2.22-4.43 0.345-0.691 0.689-1.38 1.04-2.1 2.41-4.8 2.41-4.8 3.53-5.91zm13 36c-9.97 15.8-9.97 15.8-15 33h-2c-0.326 0.724-0.652 1.45-0.988 2.2-3.76 8.32-3.76 8.32-5.82 12.3-1.4 2.49-1.4 2.49-1.19 5.5h-2c-2.29 4.81-2.29 4.81-3 10 6.2 3.23 12.4 4.44 19.2 2.32 1.64-0.696 3.23-1.5 4.8-2.32v-2c0.872-0.35 0.872-0.35 1.76-0.707 8.79-5.08 13.6-18.2 17.2-27.3 1.96-7.36 2.58-16.7-0.812-23.7-2.29-3.47-2.29-3.47-5.19-6.31h-3v-2c-1.32-0.33-2.64-0.66-4-1z" fill="#000102"/>
<path transform="translate(242,254)" d="m0 0c1.86 2.08 3.52 4.14 5.19 6.38 0.989 1.29 1.98 2.59 2.97 3.88 0.485 0.64 0.969 1.28 1.47 1.94 1.82 2.38 3.68 4.72 5.56 7.05 0.636 0.793 1.27 1.59 1.93 2.4 1.27 1.58 2.54 3.15 3.8 4.73 3.73 4.64 7.4 9.33 11 14.1 3.8 4.97 7.71 9.83 11.7 14.6 3.31 4.06 6.53 8.19 9.75 12.3 1.8 2.3 3.56 4.53 5.63 6.59v3c0.99 0.33 1.98 0.66 3 1 1.39 1.56 1.39 1.56 2.69 3.44 0.437 0.617 0.874 1.23 1.32 1.87 0.988 1.69 0.988 1.69 0.988 3.69 0.99 0.33 1.98 0.66 3 1 1.39 1.56 1.39 1.56 2.69 3.44 0.437 0.617 0.874 1.23 1.32 1.87 0.988 1.69 0.988 1.69 0.988 3.69 0.99 0.33 1.98 0.66 3 1 1.39 1.56 1.39 1.56 2.69 3.44 0.437 0.617 0.874 1.23 1.32 1.87 0.988 1.69 0.988 1.69 0.988 3.69h2c1.51 1.68 1.51 1.68 3.12 3.88 0.539 0.719 1.08 1.44 1.63 2.18 1.24 1.95 1.24 1.95 1.24 3.95h2c1.51 1.68 1.51 1.68 3.12 3.88 0.539 0.719 1.08 1.44 1.63 2.18 1.24 1.95 1.24 1.95 1.24 3.95h2c1.29 1.43 1.29 1.43 2.62 3.31 0.446 0.615 0.892 1.23 1.35 1.86 1.02 1.82 1.02 1.82 1.02 4.82 0.99 0.33 1.98 0.66 3 1 8 14.8 11.1 29.4 7 45.8-1.48 4.68-3.57 8.92-6 13.2h-2c-0.34 0.804-0.34 0.804-0.688 1.62-3.74 6.77-7.96 9.7-14.9 12.8-0.755 0.354-1.51 0.709-2.29 1.07-3.78 1.73-5.87 2.55-10.2 2.55v2h-17v-2c-0.986-0.098-1.97-0.196-2.99-0.297-4.38-0.631-8.17-2.17-12.2-3.95-0.698-0.287-1.4-0.575-2.12-0.871-4.45-1.94-6.81-3.85-9.7-7.88-1.66-1.28-1.66-1.28-3.38-2.25-3.83-2.59-5.87-5.8-8.29-9.68-1.52-2.35-3.33-4.13-5.34-6.07-1.34-1.99-2.68-3.99-4-6-0.482-0.481-0.964-0.962-1.46-1.46-2.12-2.12-3.68-4.54-5.36-7.02-1.12-1.67-1.12-1.67-3.18-2.52-0.433-0.742-0.866-1.48-1.31-2.25-1.6-2.86-1.6-2.86-4.12-5.12-2.1-2.16-3.19-3.56-4.56-6.12-1.85-3.44-4.2-5.77-7-8.5-1.32-1.75-2.56-3.53-3.79-5.35-1.16-1.68-1.16-1.68-2.63-3.05-2.01-2.04-3.55-4.27-5.2-6.6-3.47-4.83-7.13-9.44-10.9-14-1.82-2.22-3.6-4.45-5.35-6.72-0.493-0.635-0.985-1.27-1.49-1.92-0.963-1.25-1.92-2.49-2.88-3.75-2.11-2.72-3.83-4.67-6.72-6.59-1.13-1.62-1.13-1.62-2.12-3.44-0.333-0.597-0.665-1.19-1.01-1.81-0.867-1.75-0.867-1.75-1.87-4.75h-2c-1.51-1.68-1.51-1.68-3.12-3.88-0.808-1.08-0.808-1.08-1.63-2.18-1.24-1.95-1.24-1.95-1.24-3.95h-2c-1.33-1.47-1.33-1.47-2.82-3.5-0.802-1.08-0.802-1.08-1.62-2.19-0.833-1.14-0.833-1.14-1.68-2.31-0.845-1.14-0.845-1.14-1.71-2.31-1.4-1.89-2.78-3.79-4.17-5.69 3.69-3.78 7.53-7.28 11.6-10.7 0.564-0.485 1.13-0.971 1.71-1.47 2.77-2.35 5.36-4.44 8.73-5.84 7.28 8.37 14.1 17.1 20.9 25.8 2.74 3.49 5.49 6.97 8.26 10.4 0.623 0.78 1.25 1.56 1.89 2.36 1.39 1.72 2.79 3.42 4.2 5.12 0.736 0.893 1.47 1.79 2.23 2.71 0.67 0.803 1.34 1.61 2.03 2.43 1.47 2.13 1.47 2.13 1.47 5.13 0.577 0.206 1.16 0.413 1.75 0.625 3.09 1.89 4.44 4.28 6.25 7.38v2c0.577 0.227 1.16 0.454 1.75 0.688 2.87 1.67 4.39 3.58 6.25 6.31v3c1.49 0.495 1.49 0.495 3 1 5 5.35 5 5.35 5 9 1.49 0.495 1.49 0.495 3 1 1.39 1.56 1.39 1.56 2.69 3.44 0.437 0.617 0.874 1.23 1.32 1.87 0.988 1.69 0.988 1.69 0.988 3.69 0.99 0.33 1.98 0.66 3 1 1.39 1.56 1.39 1.56 2.69 3.44 0.437 0.617 0.874 1.23 1.32 1.87 0.988 1.69 0.988 1.69 0.988 3.69 0.99 0.33 1.98 0.66 3 1 1.39 1.56 1.39 1.56 2.69 3.44 0.437 0.617 0.874 1.23 1.32 1.87 0.988 1.69 0.988 1.69 0.988 3.69h2c1.51 1.68 1.51 1.68 3.12 3.88 0.539 0.719 1.08 1.44 1.63 2.18 1.24 1.95 1.24 1.95 1.24 3.95h2c1.51 1.68 1.51 1.68 3.12 3.88 0.539 0.719 1.08 1.44 1.63 2.18 1.24 1.95 1.24 1.95 1.24 3.95 0.835 0.34 0.835 0.34 1.69 0.688 2.94 1.67 4.96 3.9 7.31 6.31 0.66 0.33 1.32 0.66 2 1v2c0.784 0.144 1.57 0.289 2.38 0.438 2.62 0.562 2.62 0.562 4.62 1.56 1.62 0.121 3.25 0.175 4.88 0.188 0.864 0.0142 1.73 0.0284 2.62 0.043 2.66-0.244 4.18-0.997 6.51-2.23h3c0.268-0.557 0.536-1.11 0.812-1.69 1.19-2.31 1.19-2.31 2.75-4.44 2.89-5.77 3.01-11.7 1.38-17.9-1.54-4.56-3.89-8.26-6.73-12.1-1.21-1.81-1.21-1.81-1.21-3.81h-2c-1.37-1.83-1.37-1.83-2.88-4.25-2.14-3.33-4.28-6-7.12-8.75-1.34-1.99-2.68-3.99-4-6-0.723-0.721-0.723-0.721-1.46-1.46-2.12-2.12-3.68-4.54-5.36-7.02-1.12-1.67-1.12-1.67-3.18-2.52-0.433-0.742-0.866-1.49-1.31-2.25-1.62-2.87-1.62-2.87-4.19-5.25-2.41-2.41-3.77-4.59-5.5-7.5-1.45-1.75-2.95-3.46-4.45-5.16-1.52-1.8-2.89-3.65-4.24-5.59-2.03-3.05-2.03-3.05-3.73-4.64-1.98-2.02-3.51-4.23-5.14-6.54-3.73-5.19-7.74-10.1-11.9-15-2.64-3.15-5.15-6.4-7.64-9.67-3.14-4.12-6.33-8.18-9.62-12.2-2.81-3.42-5.62-6.84-8.38-10.3-0.568-0.713-1.14-1.43-1.72-2.16-1.21-1.78-1.21-1.78-1.21-3.78h-2c-1.73-1.97-1.73-1.97-3.62-4.5-0.632-0.835-1.26-1.67-1.91-2.53-0.482-0.65-0.964-1.3-1.46-1.97 1.47-3.59 3.38-5.4 6.44-7.75 0.782-0.614 1.56-1.23 2.37-1.86 2.19-1.39 2.19-1.39 5.19-1.39 0.33-0.99 0.66-1.98 1-3 4.34-4 4.34-4 8-4z" fill="#000102"/>
<path transform="translate(1335,385)" d="m0 0c1.38 1.29 2.71 2.63 4 4v2c0.565 0.219 1.13 0.438 1.71 0.664 3.02 1.76 4.73 3.99 6.91 6.71 0.776 0.956 1.55 1.91 2.35 2.9 1.64 2.22 2.92 4.21 4.02 6.73-0.566 0.687-1.13 1.37-1.71 2.08-0.733 0.901-1.47 1.8-2.22 2.73-0.731 0.893-1.46 1.79-2.21 2.71-2 2.41-2 2.41-2.85 5.48-0.701 0.536-1.4 1.07-2.12 1.62-5.19 4.29-8.89 9.92-12.7 15.4-0.722 0.969-1.44 1.94-2.19 2.94h-2c-0.371 0.804-0.371 0.804-0.75 1.62-2.76 5.24-6.08 9.21-10.2 13.4-0.743 1.24-0.743 1.24-1.5 2.5-1.79 2.98-4.05 5.05-6.5 7.5-0.743 1.24-0.743 1.24-1.5 2.5-1.79 2.98-4.05 5.05-6.5 7.5-0.743 1.27-0.743 1.27-1.5 2.56-1.5 2.44-1.5 2.44-3.75 4.19-3.19 2.61-5.39 5.48-7.86 8.75-1.96 2.58-3.98 5.11-6.02 7.62-2.28 2.84-4.49 5.69-6.56 8.69-2.22 3.06-4.64 5.52-7.31 8.19-0.495 0.825-0.99 1.65-1.5 2.5-1.79 2.98-4.05 5.05-6.5 7.5-0.495 0.825-0.99 1.65-1.5 2.5-1.79 2.98-4.05 5.05-6.5 7.5-0.495 0.825-0.99 1.65-1.5 2.5-1.79 2.98-4.05 5.05-6.5 7.5-0.495 0.825-0.99 1.65-1.5 2.5-1.8 3-4.02 5.02-6.5 7.5-2.17 2.38-4.27 4.81-6.38 7.25-0.571 0.661-1.14 1.32-1.73 2-4.91 5.71-9.71 11.5-13.9 17.7h-2c-1.46-1.61-2.84-3.29-4.19-5-3.39-4.26-6.88-8.36-10.6-12.3-1.21-1.66-1.21-1.66-1.21-4.66h2c0.34-0.804 0.34-0.804 0.688-1.62 1.77-3.2 3.85-5.67 6.31-8.38h2c0.217-0.699 0.433-1.4 0.656-2.12 1.68-3.61 4.11-6.18 6.84-9.01 2.72-2.86 5.3-5.58 7.5-8.88h2c2.09-3.4 2.18-6.05 2-10h-2c-1.62-1.86-1.62-1.86-3.44-4.31-2.06-2.77-4.12-5.26-6.56-7.69-1.52-1.8-3.01-3.61-4.5-5.44-0.773-0.947-1.55-1.89-2.34-2.87-1.76-2.2-3.48-4.42-5.16-6.69-4.53 0.533-7.29 2.44-11 5h-2v2c-1.89 0.961-3.79 1.92-5.69 2.88-1.06 0.534-2.11 1.07-3.2 1.62-2.67 1.29-5.34 2.45-8.11 3.51v2c-0.99 0.413-1.98 0.825-3 1.25-4.09 1.75-8.04 3.73-12 5.75-1.24-1.53-2.47-3.06-3.71-4.59-1.26-1.54-1.26-1.54-3.29-2.41-0.619-1.05-0.619-1.05-1.25-2.12-1.9-3.13-4.13-5.58-6.64-8.23-0.366-0.544-0.732-1.09-1.11-1.65 1.15-3.45 1.83-3.84 4.81-5.69 0.687-0.437 1.37-0.874 2.08-1.32 2.11-0.988 2.11-0.988 6.11-0.988v-2c2.45-1.69 2.45-1.69 5.69-3.56 1.06-0.62 2.11-1.24 3.2-1.88 2.81-1.41 5.03-2.14 8.11-2.56v-2c2.24-1.34 4.49-2.68 6.75-4 0.634-0.382 1.27-0.763 1.92-1.16 3.47-2.02 5.22-2.84 9.33-2.84v-2c2.27-1.34 4.54-2.67 6.81-4 0.643-0.382 1.29-0.763 1.95-1.16 4.9-2.84 4.9-2.84 8.24-2.84v-2c2.06-1.15 4.12-2.3 6.19-3.44 1.15-0.638 2.3-1.28 3.48-1.93 2.9-1.42 5.16-2.21 8.33-2.63v-2c2.24-1.34 4.49-2.68 6.75-4 0.951-0.572 0.951-0.572 1.92-1.16 3.47-2.02 5.22-2.84 9.33-2.84 0.33-0.99 0.66-1.98 1-3 2.33-1.57 2.33-1.57 5.25-3.12 1.43-0.777 1.43-0.777 2.89-1.57 2.67-1.22 4.97-1.87 7.86-2.3v-2c2.24-1.34 4.49-2.68 6.75-4 0.951-0.572 0.951-0.572 1.92-1.16 3.47-2.02 5.22-2.84 9.33-2.84 0.33-0.99 0.66-1.98 1-3 2.84-1.82 2.84-1.82 6.38-3.69 1.16-0.623 2.33-1.25 3.52-1.89 3.1-1.43 3.1-1.43 6.1-1.43v-2c0.759-0.41 1.52-0.82 2.3-1.24 0.994-0.539 1.99-1.08 3.01-1.63 0.986-0.534 1.97-1.07 2.99-1.62 2.8-1.52 2.8-1.52 5.7-3.51h4v-2c2.27-1.34 4.54-2.67 6.81-4 0.643-0.382 1.29-0.763 1.95-1.16 4.9-2.84 4.9-2.84 8.24-2.84v-2c2.64-1.32 5.28-2.64 8-4zm-34 46c-2.35 1.19-4.48 2.4-6.69 3.81-0.607 0.369-1.21 0.739-1.84 1.12-1.53 0.96-3.01 2.01-4.47 3.07v2c-0.695 0.0941-1.39 0.188-2.11 0.285-3.49 0.861-6.11 2.33-9.21 4.15-1.07 0.617-2.14 1.23-3.24 1.87-0.808 0.558-1.62 1.12-2.45 1.69v2c-1.06 0.141-1.06 0.141-2.14 0.285-3.39 0.846-5.74 2.26-8.68 4.15-1.46 0.926-1.46 0.926-2.96 1.87-0.736 0.558-1.47 1.12-2.23 1.69v2c-1.3 0.141-1.3 0.141-2.63 0.285-3.72 0.79-6.07 2.08-9.24 4.15-1.45 0.926-1.45 0.926-2.93 1.87-0.724 0.558-1.45 1.12-2.2 1.69v2c-0.804 0.0412-1.61 0.0825-2.44 0.125-4.87 1.2-8.74 3.64-12.6 6.88-0.33 0.99-0.66 1.98-1 3 0.763 0.722 1.53 1.44 2.31 2.19 2.43 2.54 3.9 4.83 5.69 7.81 1.64 1.69 3.31 3.35 5 5 2.04 2.3 4.02 4.64 6 7 2.93-0.34 3.92-0.91 5.96-3.11 0.651-0.871 1.3-1.74 1.97-2.64 2.8-3.72 5.76-6.97 9.06-10.2 1.48-1.75 2.94-3.52 4.38-5.31 2.66-3.28 5.32-6.53 8.12-9.69 5.08-5.74 9.89-11.7 14.6-17.7 1.83-2.26 3.8-4.24 5.86-6.29 3.01-3.09 3.01-3.09 4-7h2c1.81-2.02 1.81-2.02 3.62-4.5 0.947-1.25 0.947-1.25 1.91-2.53 0.482-0.65 0.964-1.3 1.46-1.97-0.99-0.33-1.98-0.66-3-1z" fill="#000102"/>
<path transform="translate(641 1202)" d="m0 0c1.94-0.0316 3.88-0.0793 5.82-0.144 2.8-0.0915 5.59-0.13 8.4-0.158 1.29-0.0572 1.29-0.0572 2.61-0.116 3.72 0.0119 5.98 0.0849 8.79 2.66 2.32 3.01 3.91 5.66 5.11 9.27 1.86 1.09 1.86 1.09 4 2 1.19 0.805 2.38 1.62 3.56 2.44 11.7 7.28 26.8 7.62 40 5.42 11.4-2.88 18.4-8.83 25.1-18.2 1.33-1.67 1.33-1.67 3.33-2.67 2.98-0.0992 5.93-0.14 8.91-0.133 0.883-9.57e-4 1.77-0.00191 2.67-0.0029 1.87-6.81e-4 3.73 0.00117 5.6 0.00534 2.87 0.00536 5.74 4.91e-5 8.61-0.00635 1.81 6.61e-4 3.62 0.00194 5.43 0.00391 1.3-0.00304 1.3-0.00304 2.62-0.00613 6.05 0.024 6.05 0.024 7.16 1.14-0.213 13.2-8.67 23.8-17.7 32.7-12.2 11.3-12.2 11.3-16.3 11.3-0.33 6.93-0.66 13.9-1 21 24.9 4.45 41.6 2.93 64.8-6.68 5.34-2.17 10.5-4.22 16.2-2.32 6.14 4.09 9.78 8.38 13 15l-60.2 20.1c-0.718 0.239-1.44 0.479-2.18 0.726-1.38 0.46-2.76 0.918-4.14 1.37-2.74 0.907-5.47 1.83-8.18 2.83-5.01 1.83-8.92 2.62-14.3 2-2.44-1.32-4.39-2.54-6.56-4.19-13.5-9.43-29.7-12.7-46-10.3-16.7 3.35-30.1 10.5-40.4 24.5-2.23 3.91-4.19 7.88-6 12-2.26-3.61-2.25-6.6-2.24-10.8-0.00201-0.675-0.00403-1.35-0.0061-2.05-0.00354-1.46-0.00279-2.92 0.00178-4.39 0.0056-2.32-0.00358-4.63-0.0172-6.95-0.0371-6.58-0.0557-13.2-0.0444-19.8 0.00586-4.03-0.0124-8.06-0.0459-12.1-0.00794-1.53-0.00669-3.07 0.00402-4.6 0.0144-2.15-0.00197-4.29-0.025-6.44-6.29e-4 -1.22-0.00126-2.44-0.00191-3.7-1.16-6-6.22-8.81-11-12.1-11-7.93-20.7-18.8-24.6-32.1 1.06-9.37 11.7-6.42 19.3-6.51z" fill="#0D0F0F"/>
<path transform="translate(853,1280)" d="m0 0c0.648 1.75 1.29 3.5 1.94 5.25 0.539 1.46 0.539 1.46 1.09 2.95 4.16 12 2.74 24.8-2.59 36.1-5.91 6.51-16.1 9.33-24.1 12.6-1.05 0.436-2.1 0.872-3.19 1.32-7.14 2.94-14.3 5.73-21.6 8.4-3.47 1.29-6.92 2.64-10.4 4.03-1.2 0.48-2.4 0.959-3.63 1.45-2.65 1.06-5.29 2.13-7.92 3.21-3.13 1.28-6.27 2.55-9.4 3.81-1.27 0.513-2.54 1.03-3.8 1.55-1.8 0.74-3.6 1.46-5.4 2.19-1.05 0.428-2.1 0.856-3.19 1.3-3.11 0.859-4.84 0.712-7.9-0.199-0.0748-1.1-0.15-2.2-0.227-3.33-1-12.1-3.64-21.8-12.9-30.2-6.43-5.02-13.7-7.12-21.8-7.43-5.22 0.805-9.44 1.96-13 6 1.12 0.0374 2.25 0.0748 3.4 0.113 20.3 0.822 20.3 0.822 28.8 8.79 6.52 7.63 8.4 16.3 7.79 26.1-1.17 7.28-5.27 13.3-11.2 17.6-10.1 5.85-21.3 6.85-32.7 4.89-2.46-0.685-4.74-1.51-7.09-2.5-0.84-0.34-1.68-0.681-2.55-1.03-7.9-3.54-14.4-8.44-17.7-16.7-2.41-7-2.37-14-2.27-21.3 0.0292-2.29 0.0205-4.58 0.00757-6.86 0.0423-10 1.05-17.1 7.46-25.2 11.1-10.3 22.7-14.4 37.8-14.3 0.874 0.00564 1.75 0.0113 2.65 0.0171 16.1 0.3 29 5.38 40.8 16.3 1.77 1.95 1.77 1.95 1.77 3.95 0.619 0.309 1.24 0.619 1.88 0.938l4.12 2.06c-0.99-5.94-0.99-5.94-2-12 3.79-2.84 7.04-4.26 11.4-5.71 0.741-0.252 1.48-0.504 2.24-0.764 2.44-0.827 4.88-1.64 7.32-2.46 1.7-0.573 3.39-1.15 5.09-1.72 5.3-1.79 10.6-3.57 15.9-5.34 1.74-0.583 3.48-1.17 5.22-1.75 9.13-3.06 18.3-6.1 27.4-9.13 2.22-0.737 4.43-1.49 6.64-2.27 2.74-0.852 2.74-0.852 5.74-0.852z" fill="#0D0F0F"/>
<path transform="translate(863,118)" d="m0 0c2.34 0.287 4.67 0.619 7 1v2c1.86-0.0889 1.86-0.0889 3.75-0.18 5.99 0.00234 11.4 1.5 17.2 3.05 2.05 0.541 4.1 1.08 6.15 1.62 0.983 0.257 1.97 0.515 2.98 0.78 4.28 1.06 8.59 1.92 12.9 2.73v2c1.7-0.155 1.7-0.155 3.44-0.312 7.77-0.0625 15.2 3.01 22.6 5.31-1.65 8.25-3.3 16.5-5 25-11.7-1.46-22.9-4.38-34.2-7.3-5.23-1.32-10.5-2.52-15.8-3.7-0.234 1.07-0.469 2.13-0.71 3.23-1.82 8.27-3.69 16.5-5.61 24.8-0.291 1.25-0.291 1.25-0.588 2.52-0.793 3.4-1.59 6.8-2.39 10.2-0.595 2.53-1.19 5.06-1.78 7.6-0.179 0.755-0.358 1.51-0.543 2.29-0.167 0.722-0.334 1.44-0.507 2.19-0.146 0.621-0.291 1.24-0.441 1.88-0.64 3.41-1 6.87-1.44 10.3 5.94 1.32 11.9 2.64 18 4v2c1.15-0.0825 2.31-0.165 3.5-0.25 7.37-0.0473 14.5 2.31 21.5 4.25 1.07 3.28 0.898 5.38 0.0391 8.7-0.224 0.88-0.449 1.76-0.68 2.67-0.364 1.37-0.364 1.37-0.734 2.76-0.235 0.919-0.469 1.84-0.711 2.79-1.74 6.75-1.74 6.75-2.91 9.09h-7v-2c-1.05-0.102-2.09-0.204-3.17-0.309-7.32-0.914-14.5-2.88-21.6-4.61-1.69-0.399-1.69-0.399-3.41-0.807-1.02-0.245-2.03-0.49-3.08-0.742-2.91-0.664-2.91-0.664-6.71-0.535-0.354 1.54-0.354 1.54-0.715 3.12-0.909 3.97-1.82 7.93-2.73 11.9-0.409 1.78-0.818 3.56-1.23 5.33-2.11 9.19-4.24 18.4-6.48 27.5-0.164 0.67-0.328 1.34-0.497 2.03-0.763 3.11-1.53 6.22-2.31 9.32-0.27 1.09-0.54 2.19-0.818 3.31-0.236 0.941-0.472 1.88-0.715 2.85-0.499 2.6-0.593 4.97-0.5 7.61 0.84 0.186 1.68 0.372 2.54 0.563 15.9 3.53 31.8 7.1 47.5 11.4-1.43 21.4-1.43 21.4-5 25-2.36-0.0903-4.71-0.247-7.06-0.438-1.29-0.102-2.58-0.204-3.91-0.309-0.999-0.0838-2-0.168-3.03-0.254v-2c-1.58-0.155-1.58-0.155-3.19-0.312-7.17-0.896-14.2-2.82-21.2-4.52-6.23-1.48-12.3-2.63-18.6-3.17v-2c-1.03-0.0825-2.06-0.165-3.12-0.25-6.46-0.781-12.7-2.87-18.9-4.75 1.24-8.94 2.95-17.7 5.06-26.4 0.464-1.96 0.927-3.92 1.39-5.87 0.497-2.1 0.996-4.19 1.5-6.29 1.09-4.58 2.18-9.17 3.27-13.8 0.379-1.6 0.758-3.2 1.14-4.8 0.189-0.799 0.378-1.6 0.573-2.42 0.577-2.44 1.15-4.87 1.73-7.3 7.21-30.4 7.21-30.4 14-60.9 1.6-7.32 3.34-14.6 5.09-21.9 2.18-9.05 4.31-18.1 6.39-27.2 0.259-1.13 0.518-2.26 0.785-3.43 1.06-4.62 2.11-9.25 3.17-13.9 0.784-3.44 1.57-6.88 2.36-10.3 0.239-1.05 0.477-2.11 0.723-3.19 0.331-1.44 0.331-1.44 0.669-2.91 0.289-1.27 0.289-1.27 0.584-2.56 0.535-1.93 0.535-1.93 1.54-2.93z" fill="#000102"/>
<path transform="translate(1045,697)" d="m0 0c10.2 9.33 10.4 31.8 11.9 44.7 0.164 1.37 0.328 2.75 0.493 4.12 0.433 3.62 0.858 7.25 1.28 10.9 0.263 2.25 0.528 4.49 0.794 6.74 2.64 22.3 5.11 44.7 7.18 67 0.259 2.58 0.556 5.13 0.891 7.7 0.334 2.76 0.584 5.33 0.561 8.1-0.00483 1.04-0.00483 1.04-0.00977 2.11-0.0126 1.04-0.0126 1.04-0.0254 2.11-0.00451 0.727-0.00902 1.45-0.0137 2.2-0.0116 1.77-0.0295 3.53-0.0488 5.3-3.17-0.98-5.99-1.99-8.9-3.6-4.78-2.16-9.46-1.82-14.6-1.9-4.06-0.592-5.02-1.28-7.46-4.5-1.28-1.99-2.5-4.02-3.69-6.06-4.61-7.71-10.1-14.5-16.2-21-0.739-0.787-0.739-0.787-1.49-1.59-1.39-1.47-2.8-2.93-4.21-4.38-5.11-6.26-5.98-12.5-6.78-20.3-0.233-2.08-0.466-4.17-0.699-6.25-0.117-1.08-0.235-2.17-0.355-3.29-2.34-21.5-5.39-42.8-9.55-64-0.708 4.03-1.11 7.78-1.06 11.9 0.0135 1.45 0.0135 1.45 0.0273 2.93 0.0116 0.724 0.0232 1.45 0.0352 2.2-0.99-0.33-1.98-0.66-3-1-0.87-4.23-1.72-8.46-2.56-12.7-0.247-1.2-0.494-2.4-0.748-3.63-0.229-1.16-0.458-2.31-0.693-3.51-0.322-1.59-0.322-1.59-0.651-3.22-0.352-3.01-0.238-5.07 0.655-7.95 2.25-2.56 2.25-2.56 5-5 0.722-0.66 1.44-1.32 2.19-2 15.5-11 35.4-12.7 51.8-2z" fill="#0D0F0F"/>
<path transform="translate(1226,279)" d="m0 0v2c1.1 0.124 1.1 0.124 2.22 0.25 7.37 1.99 12.7 10.6 16.9 16.6 1.22 2.92 0.975 4.17-0.102 7.14-1.53 2.13-3.03 4.04-4.75 6-0.646 0.762-0.646 0.762-1.3 1.54-2.84 3.31-5.83 6.41-8.95 9.46-0.496-0.869-0.993-1.74-1.5-2.63-4.85-8.31-9-15-18.4-18.4-5.1-1.32-9.24-0.918-14.1 1-2.36 1.49-2.36 1.49-4 3h-2c-0.251 0.527-0.503 1.05-0.762 1.6-0.935 1.81-1.95 3.59-3.01 5.34-6.27 10.6-8.88 21.1-11.2 33.1-0.269 1.36-0.539 2.72-0.808 4.08-1.53 7.71-3.02 15.4-4.51 23.1-0.22 1.14-0.22 1.14-0.443 2.3-0.855 4.45-1.69 8.91-2.52 13.4-3.18 16.7-7.29 34.2-17.4 48.2-1.53 1.99-1.53 1.99-2.35 4.93-1.64 1.69-3.31 3.35-5 5-0.578 0.825-1.15 1.65-1.75 2.5-3.2 3.56-7.05 5.32-11.2 7.5-0.969 0.598-1.94 1.2-2.94 1.81-2.06 1.19-2.06 1.19-4.06 1.19v2c-5.57 0.791-10.9 1.16-16.6 1.12-0.716 0.00387-1.43 0.00773-2.17 0.0117-4.52-0.00823-8.81-0.398-13.3-1.14v-2c-0.804-0.206-1.61-0.413-2.44-0.625-11.5-4.45-18.4-13.2-24.2-23.9-1.41-3.59-1.58-4.11-0.375-7.5 1.94-3.25 1.94-3.25 4-6h2c0.371-0.804 0.371-0.804 0.75-1.62 1.56-2.96 3.28-5.67 5.25-8.38h2c0.33-0.99 0.66-1.98 1-3h2c0.219 0.846 0.438 1.69 0.664 2.56 1.84 6.58 3.67 11.8 8.16 16.9 1.17 1.49 1.17 1.49 1.17 3.49 0.763 0.124 1.53 0.248 2.31 0.375 2.69 0.625 2.69 0.625 5.69 2.62 6.14 1.47 11.2 1.09 17-1.21 2.01-0.789 2.01-0.789 4.14-1.08 0.616-0.235 1.23-0.469 1.87-0.711 0.683-1.66 1.35-3.33 2-5 0.922-1.6 1.84-3.21 2.78-4.8 5.41-9.37 7.75-18.8 9.91-29.3 0.381-1.77 0.764-3.54 1.15-5.31 2.46-11.5 4.49-23 6.35-34.5 4.45-26.7 13.3-54.2 35.8-71h4v-2c1.58-0.649 3.17-1.29 4.75-1.94 0.882-0.36 1.76-0.719 2.67-1.09 11.9-4.48 24.5-2.52 35.6 3.03z" fill="#000102"/>
<path transform="translate(100,389)" d="m0 0v2c0.562 0.0941 1.12 0.188 1.7 0.285 2.86 0.891 4.69 2.3 7.05 4.15 1.2 0.926 1.2 0.926 2.42 1.87 0.603 0.558 1.21 1.12 1.83 1.69v2c1.32 0.66 2.64 1.32 4 2v2c-0.566 0.266-1.13 0.531-1.71 0.805-1.1 0.53-1.1 0.53-2.22 1.07-0.731 0.348-1.46 0.696-2.21 1.05-2.01 0.939-2.01 0.939-2.85 3.07-0.763 0.268-1.53 0.536-2.31 0.812-3.33 1.47-4.65 3.21-6.69 6.19-0.33 0.99-0.66 1.98-1 3h-2c-1.39 10.2-1.39 10.2 1 20 1.99 1.5 1.99 1.5 4 2v2c0.578 0.289 1.16 0.577 1.75 0.875 2.08 1.04 4.17 2.08 6.25 3.12v2c0.684 0.115 1.37 0.229 2.07 0.348 3.38 0.754 6.49 1.88 9.74 3.09 5.04 1.83 9.96 3.41 15.2 4.56v2c0.83-0.05 0.83-0.05 1.68-0.101 7.89-0.257 15.2 1.28 22.8 2.98 2.51 0.539 5.02 1.08 7.53 1.62 1.78 0.386 1.78 0.386 3.59 0.78 4.45 0.957 8.91 1.85 13.4 2.73v2c1.1-0.0709 2.19-0.142 3.32-0.215 5.55 0.00122 10.4 1.81 15.6 3.65 0.949 0.325 1.9 0.651 2.88 0.986 6.79 2.34 6.79 2.34 9.25 3.58v2c0.695-0.0799 1.39-0.16 2.11-0.242 3.9 0.327 6 1.91 9.21 4.12l3.24 2.18c0.808 0.642 1.62 1.28 2.45 1.95v2l1.8 0.324c7.91 2.43 13.4 13 17.2 19.7 4.82 9.44 4.46 23 2.34 33.2-0.912 2.48-1.97 4.58-3.34 6.84-0.463 0.824-0.926 1.65-1.4 2.5-5.67 9.11-15.9 18-26.6 20.5-4.53-0.745-7.24-3.54-10.6-6.5-4.28-3.94-4.28-3.94-9.44-6.5v-2c-0.99-0.33-1.98-0.66-3-1v-2c0.675-0.193 1.35-0.387 2.05-0.586 0.892-0.26 1.78-0.521 2.7-0.789 0.882-0.255 1.76-0.51 2.67-0.773 2.55-0.763 2.55-0.763 4.66-1.95 1.92-0.898 1.92-0.898 5.92-0.898 0.33-0.99 0.66-1.98 1-3 1.67-1.67 3.33-3.33 5-5 3.64-5.33 4.52-9.54 4-16-1.84-6.75-4.13-11.1-10-15-0.99-0.33-1.98-0.66-3-1v-2c-1.14-0.371-1.14-0.371-2.31-0.75-2.04-0.692-4.08-1.41-6.08-2.2-7.12-2.79-14-4.13-21.6-5.05v-2c-1.02-0.103-2.05-0.206-3.1-0.312-7.79-0.973-15.4-2.86-23.1-4.52-6.93-1.47-13.7-2.69-20.8-3.17v-2c-1.13-0.103-2.26-0.206-3.43-0.312-4.83-0.604-9.19-2.06-13.8-3.69-6.79-2.42-6.79-2.42-13.8-4v-2c-0.825-0.227-1.65-0.454-2.5-0.688-3.61-1.35-6.48-3.07-9.67-5.19-1.94-1.28-1.94-1.28-4.83-2.12-1.65-1.67-1.65-1.67-3.38-3.75-2.06-2.44-4.09-4.7-6.38-6.94-2.62-2.69-5.25-5.41-5.25-9.31h-2c-5.06-13-6.43-26.8-1-40h2c0.0825-0.536 0.165-1.07 0.25-1.62 1.03-3.25 2.72-5.66 4.75-8.38h2c0.249-0.593 0.498-1.19 0.754-1.8 1.43-2.52 2.86-3.74 5.18-5.45 0.69-0.521 1.38-1.04 2.09-1.58 1.97-1.17 1.97-1.17 4.97-1.17v-2c2.49-1.25 3.41-0.777 6 0z" fill="#000102"/>
<path transform="translate(536,125)" d="m0 0c2.26 2.26 2.52 3.34 3.26 6.39 0.228 0.921 0.456 1.84 0.691 2.79 0.243 1.01 0.485 2.03 0.735 3.07 0.261 1.07 0.523 2.14 0.792 3.24 2.61 10.7 5.11 21.5 7.6 32.3 2.3 9.9 4.65 19.8 7 29.7 1.95 8.22 3.9 16.4 5.8 24.7 3.05 13.2 6.19 26.3 9.49 39.4 4.55 18.1 8.93 36.2 13.1 54.4 0.314 1.38 0.63 2.75 0.947 4.13 0.44 1.91 0.873 3.82 1.31 5.74 0.249 1.09 0.497 2.19 0.754 3.31 0.531 2.84 0.531 2.84 0.531 6.84-5 1.34-10 2.67-15 4-0.87 0.235-1.74 0.469-2.64 0.711-3.29 0.864-5.93 1.29-9.36 1.29-0.15-0.657-0.301-1.31-0.456-1.99-4.98-21.7-10.2-43.4-15.5-65.1-1.53-6.29-3.06-12.6-4.59-18.9-0.447-1.84-0.894-3.68-1.34-5.52-3.5-14.4-6.86-28.9-10.2-43.3-3.89-16.9-7.94-33.8-12.1-50.6-0.939-3.84-1.88-7.69-2.81-11.5-0.539-2.21-1.08-4.42-1.62-6.63-0.328-1.35-0.656-2.69-0.984-4.04-0.436-1.78-0.436-1.78-0.881-3.6-0.623-2.8-0.623-2.8-0.623-4.8h8v-2c2.96-0.722 5.91-1.43 8.88-2.12 0.842-0.208 1.68-0.415 2.55-0.629 0.806-0.187 1.61-0.374 2.44-0.566 0.744-0.178 1.49-0.356 2.25-0.54 0.62-0.0462 1.24-0.0925 1.88-0.14z" fill="#000102"/>
<path transform="translate(1055,862)" d="m0 0c2.97 2.22 4.37 3.74 6 7 0.0988 1.56 0.135 3.13 0.14 4.69 0.00857 1.48 0.00857 1.48 0.0173 3 0.00112 1.09 0.00224 2.18 0.00339 3.3 0.00496 1.14 0.00993 2.29 0.015 3.47 0.0146 3.8 0.0214 7.6 0.0269 11.4 0.00575 2.63 0.0115 5.27 0.0173 7.9 0.00957 4.82 0.0155 9.64 0.0185 14.5 0.00448 7.1 0.022 14.2 0.051 21.3 0.0242 6.14 0.0319 12.3 0.0337 18.4 0.00303 2.61 0.0111 5.23 0.0242 7.84 0.017 3.65 0.0152 7.31 0.00869 11 0.00921 1.09 0.0184 2.17 0.0279 3.29-0.00557 0.995-0.0111 1.99-0.0169 3.02 0.00147 0.864 0.00293 1.73 0.00444 2.62-0.461 2.88-1.34 4.25-3.37 6.33-3.4 0.496-3.4 0.496-7.38 0.438-1.31-0.00129-2.61-0.00258-3.96-0.00391-3.93-0.465-5.65-0.898-8.66-3.43-0.52-2.73-0.692-4.87-0.659-7.61-0.0105-0.775-0.021-1.55-0.0318-2.35-0.0289-2.58-0.0224-5.15-0.0158-7.73-0.0131-1.81-0.0285-3.62-0.0458-5.44-0.04-4.8-0.05-9.6-0.054-14.4-0.00916-4.77-0.0467-9.54-0.0818-14.3-0.0565-8.23-0.0863-16.5-0.0979-24.7-0.00675-4.69-0.0204-9.39-0.0467-14.1-0.0174-3.18-0.0286-6.37-0.0409-9.55-0.00772-1.09-0.0154-2.19-0.0234-3.31-0.0339-15.6-0.0339-15.6 2.91-20.6 4.89-2.97 9.61-2.92 15.2-1.94z" fill="#0D0F0F"/>
<path transform="translate(368,871)" d="m0 0c0.138 13.2-0.296 26.3-0.875 39.4-0.09 2.11-0.18 4.21-0.269 6.32-0.234 5.48-0.471 11-0.71 16.4-0.244 5.62-0.484 11.2-0.724 16.9-0.47 11-0.944 22-1.42 32.9-10.1-1.13-15.7-5.12-22.5-12.7-5.07-7.8-4.94-15.3-4.87-24.3 5.2e-4 -1.36-2.69e-6 -2.71-0.00151-4.07 8.93e-5 -2.83 0.0104-5.67 0.0286-8.5 0.0227-3.61 0.0232-7.22 0.0165-10.8-0.00336-2.8 0.00333-5.6 0.0131-8.4 0.00565-1.97 0.00442-3.94 0.00303-5.91 0.0892-11.4 1.23-20.5 9.02-29.2 6.15-5.93 13.7-10 22.3-8.09z" fill="#0C0E0E"/>
<path transform="translate(861,813)" d="m0 0c16.2 3.25 32 7.62 47.8 12.5 1.19 0.368 2.38 0.735 3.61 1.11 22.4 7 22.4 7 32.1 11.9 1.66 0.82 1.66 0.82 3.34 1.66 5.37 3.14 9.52 6.86 13.2 11.8 0.63 0.825 1.26 1.65 1.91 2.5 5.73 9.01 8 19.6 9.71 30 0.311 1.8 0.311 1.8 0.628 3.64 1.76 10.6 2.91 21.2 3.68 31.9-1.49-0.495-1.49-0.495-3-1-1.11-2.4-2.05-4.71-2.94-7.19-1.84-5.08-3.68-9.56-7.06-13.8h-3c-0.889 2.67-1.19 4.54-1.36 7.3-0.0535 0.865-0.107 1.73-0.162 2.62-0.0542 0.934-0.108 1.87-0.164 2.83-0.124 1.99-0.249 3.98-0.373 5.97-0.191 3.13-0.38 6.26-0.566 9.39-0.181 3.03-0.371 6.05-0.561 9.08-0.0522 0.918-0.104 1.84-0.158 2.78-0.411 6.45-1.38 12.7-2.66 19-1.68-3.17-2.26-5.31-2.31-8.92-0.0229-0.99-0.0458-1.98-0.0693-3-0.0197-1.08-0.0393-2.16-0.0596-3.27-0.0137-42.4-0.0137-42.4-14.6-80.8-0.477-0.684-0.954-1.37-1.45-2.07-14-17.9-40.4-27.5-60.3-36.5-5.42-2.46-10.8-4.96-16.2-7.46 0.33-0.66 0.66-1.32 1-2z" fill="#0C0E0E"/>
<path transform="translate(546 813)" d="m0 0c1.83 0.0309 1.83 0.0309 3.69 0.0625-2.76 2.76-6.06 3.82-9.62 5.25-0.754 0.307-1.51 0.614-2.28 0.931-5.18 2.1-10.4 4.07-15.7 6.01-4.57 1.69-9.04 3.41-13.3 5.7-1.7 0.901-3.42 1.75-5.15 2.59-19.8 9.64-38.4 19.7-46.8 41.2-6.05 18.5-6.36 39.2-7.22 58.5-0.0867 1.85-0.174 3.69-0.262 5.54-0.21 4.45-0.414 8.89-0.613 13.3-0.99-0.33-1.98-0.66-3-1-0.412-4.82-0.821-9.63-1.23-14.4-0.138-1.63-0.277-3.26-0.416-4.89-0.959-11.2-1.75-22.4-2.36-33.7h-3c-4.33 4.9-6.58 11.5-8.81 17.5-0.311 0.822-0.623 1.64-0.943 2.49-0.756 2-1.5 4-2.24 6.01-2-3.3-2.15-5.4-1.71-9.2 0.116-1.03 0.232-2.06 0.351-3.13 0.141-1.11 0.281-2.22 0.426-3.36 0.211-1.72 0.211-1.72 0.426-3.48 5.87-45.6 5.87-45.6 21.6-59.7 11.2-8.57 25.3-13.3 38.8-17 3.93-1.08 7.74-2.37 11.6-3.71 6.01-2.04 12-3.59 18.2-4.98 5.85-1.32 11.6-2.91 17.3-4.62 4.15-1.17 7.95-1.97 12.3-1.89z" fill="#0C0E0E"/>
<path transform="translate(727,351)" d="m0 0c0.919 0.0126 1.84 0.0251 2.78 0.0381 27.5 0.484 55.1 3.9 82.2 7.96v2c0.655-0.0464 1.31-0.0928 1.98-0.141 9.85-0.375 18.8 1.83 28.3 4.14 1.63 0.387 3.26 0.772 4.89 1.16 3.96 0.934 7.91 1.88 11.9 2.84v2c1.83-0.124 1.83-0.124 3.69-0.25 3.23 0.0115 4.35 0.272 7.31 1.88 2 2.38 2 2.38 2.5 5.5-0.165 0.949-0.33 1.9-0.5 2.88-4.49 2.99-8.29 2.33-13.5 1.33-1.21-0.31-2.41-0.619-3.65-0.938-1.37-0.344-2.73-0.688-4.1-1.03-0.707-0.181-1.41-0.362-2.14-0.549-3.73-0.953-7.47-1.87-11.2-2.78-0.739-0.18-1.48-0.361-2.24-0.547-9.33-2.26-18.7-4.05-28.2-5.48-0.645-0.0975-1.29-0.195-1.95-0.296-28.1-4.23-56-6.55-84.4-6.9-1.16-0.0161-2.32-0.0321-3.51-0.0487-5.8-0.079-11.6-0.136-17.4-0.151-2.13-0.0212-4.26-0.0429-6.39-0.0654-0.984 0.00515-1.97 0.0103-2.98 0.0156-6.74-0.0991-6.74-0.0991-9.98-2.59-0.447-0.649-0.894-1.3-1.36-1.97h2c0.103-0.784 0.206-1.57 0.312-2.38 0.688-2.62 0.688-2.62 3.69-4.62 2.59-0.317 5.08-0.517 7.69-0.625 1.18-0.0558 1.18-0.0558 2.39-0.113 10.6-0.447 21.3-0.423 31.9-0.262z" fill="#000102"/>
<path transform="translate(1286,915)" d="m0 0c0.33 0.66 0.66 1.32 1 2 0.928 0.186 0.928 0.186 1.88 0.375 2.97 0.874 3.6 1.94 5.12 4.62 0.286 2.64 0.376 4.99 0.312 7.62-0.012 0.82-0.024 1.64-0.0364 2.49-0.0625 2.96-0.164 5.93-0.276 8.89-0.0425 1.15-0.0851 2.3-0.129 3.48-1.36 33.2-3.94 67-11.2 99.5-0.763 3.45-1.47 6.91-2.18 10.4-0.516 2.46-1.03 4.92-1.55 7.38-0.233 1.13-0.466 2.26-0.707 3.42-1.31 6-2.82 10.8-6.23 15.9-3.57 0.509-4.84 0.11-7.88-1.94-2.91-4.19-1.99-7.28-1.12-12.1 1.01-4.69 2.13-9.34 3.25-14 7.95-34 12.5-69.3 12.8-104 0.0356-3.1 0.0891-6.19 0.143-9.29 0.0315-2.3 0.0352-4.6 0.0384-6.9 0.0226-1.43 0.0464-2.87 0.0718-4.3 0.00935-1.28 0.0187-2.55 0.0283-3.87 0.802-4.22 2.4-5.67 5.64-8.39 0.33-0.33 0.66-0.66 1-1z" fill="#000102"/>
<path transform="translate(600 1483)" d="m0 0c16.5 3.65 33 6.47 49.8 8.25 0.785 0.0857 1.57 0.171 2.38 0.26 11.7 1.25 23.4 1.88 35.2 2.2 1 0.0282 1 0.0282 2.02 0.057 6.06 0.17 12.1 0.333 18.2 0.417 3.79 0.0538 7.58 0.135 11.4 0.218 1.15 0.00523 2.29 0.0105 3.47 0.0158 7.77 0.198 7.77 0.198 11.2 3.08 1.67 3.6 1.19 5.89 0.243 9.69-3.07 3.07-11.1 2.13-15.2 2.14-0.899-0.00483-1.8-0.00967-2.73-0.0146-1.45-0.00725-1.45-0.00725-2.94-0.0146-3.04-0.0245-6.08-0.0639-9.13-0.11-0.898-0.0126-1.8-0.0251-2.72-0.0381-14-0.253-27.9-1.5-41.8-2.9-0.852-0.0854-1.7-0.171-2.58-0.259-9.54-0.964-19-2.04-28.5-3.38-5.42-0.695-10.9-1.08-16.3-1.43v-2c-0.549-0.0374-1.1-0.0748-1.66-0.113-7.9-0.655-15.5-2.17-23.3-3.89-0.658-0.127-1.32-0.254-2-0.385-11.1-2.14-11.1-2.14-13.6-5.87-0.766-2.29-1.24-4.35-1.46-6.74 8.78-5.17 20.9-1.29 30.1 0.812z" fill="#000102"/>
<path transform="translate(1254,741)" d="m0 0c3.25 0.125 3.25 0.125 7 1 3.32 4.14 5.04 8.41 6.48 13.5 0.321 1.08 0.321 1.08 0.649 2.19 0.7 2.38 1.38 4.77 2.06 7.16 0.238 0.831 0.475 1.66 0.72 2.52 9.06 31.8 15.4 63.8 19.1 96.7 0.13 1.11 0.26 2.23 0.394 3.38 1.29 11.2 1.89 22.3 1.61 33.6-1.98 0.99-3.96 1.98-6 3-3.18-1.5-4.8-2.35-7-5-1.11-4.08-1.37-8.12-1.58-12.3-0.147-2.88-0.371-5.76-0.591-8.64-0.113-1.49-0.222-2.98-0.328-4.47-2.67-37.2-10.4-75.3-21.9-111-0.347-1.07-0.347-1.07-0.7-2.17-0.445-1.37-0.897-2.73-1.36-4.09-1.28-3.93-1.91-7.29-1.56-11.4 1.5-2.38 1.5-2.38 3-4z" fill="#000102"/>
<path transform="translate(907,1464)" d="m0 0c0.33 0.99 0.66 1.98 1 3h2c0.312 2.75 0.312 2.75 0 6-2.94 3.03-5.99 4.73-10 6h-3v2c-0.825 0.159-1.65 0.317-2.5 0.48-7.58 1.53-14.8 3.43-22.2 5.89-3.34 1.1-5.76 1.63-9.33 1.63v2c-0.972 0.159-1.94 0.317-2.95 0.48-9.61 1.61-19.1 3.59-28.6 5.89-4.59 1.09-8.73 1.92-13.5 1.63v2c-1.01 0.098-2.03 0.196-3.07 0.297-1.54 0.151-3.08 0.302-4.61 0.453-0.85 0.0836-1.7 0.167-2.58 0.253-6.35 0.634-12.7 1.32-19 2.02-1.65 0.183-3.31 0.365-4.96 0.548-2.49 0.275-4.98 0.552-7.47 0.833-2.37 0.268-4.74 0.53-7.11 0.791-1.06 0.122-1.06 0.122-2.14 0.246-12.9 1.4-12.9 1.4-16.5-1.19-2.64-3.8-2.64-3.8-2.56-6.25 2.24-3.32 3.71-4.69 7.65-5.64 3.39-0.436 6.76-0.733 10.2-0.988 2.56-0.236 5.11-0.473 7.67-0.711 1.28-0.112 2.55-0.224 3.87-0.339 20.5-1.83 40.5-5.66 60.7-9.91 1.91-0.4 3.82-0.791 5.72-1.18 7.48-1.55 14.8-3.41 22.1-5.61 1.54-0.456 1.54-0.456 3.11-0.921 14.2-4.17 14.2-4.17 28.2-8.83 3.37-1.04 6.31-1.01 9.81-0.871z" fill="#000102"/>
<path transform="translate(1188,1253)" d="m0 0c1.5 1.75 1.5 1.75 2 4-0.472 3.95-1.67 6.37-4 9.56-0.63 0.868-1.26 1.74-1.91 2.63-0.69 0.927-1.38 1.85-2.09 2.81-0.721 0.978-1.44 1.96-2.18 2.96-4.23 5.69-8.58 11.3-13 16.8-1.56 1.98-3.03 3.99-4.46 6.06-2.22 3.06-4.64 5.52-7.31 8.19-0.474 0.825-0.949 1.65-1.44 2.5-2.01 3.21-4.67 5.09-7.56 7.5-0.474 0.804-0.949 1.61-1.44 2.44-1.87 3.07-4.12 4.84-6.94 7.04-1.8 1.7-2.54 3.32-3.62 5.53-0.763 0.433-1.53 0.866-2.31 1.31-2.64 1.66-3.47 2.61-5.12 5.12-2.34 3.52-5.03 5.23-8.56 7.56-1.34 1.99-2.68 3.99-4 6-1.66 1.01-3.33 2.01-5 3-1.03 1.14-2.03 2.31-3 3.5-2.41 2.95-4.66 4.62-8 6.5l-5 5h-2v2c-1.97 1.38-3.97 2.71-6 4l-1 1c-3.6 0.4-5.38 0.443-8.38-1.69-1.62-2.31-1.62-2.31-2.1-4.59 0.717-4.1 3.45-6.06 6.48-8.66 0.594-0.529 1.19-1.06 1.8-1.6 3.66-3.23 7.4-6.31 11.4-9.08 2.48-1.92 4.57-4.15 6.78-6.38 1.07-1.07 2.14-2.13 3.21-3.19 3.2-3.18 6.4-6.37 9.6-9.56 1.37-1.37 2.75-2.73 4.12-4.1 2-1.99 4-3.98 6-5.98 0.604-0.599 1.21-1.2 1.83-1.82 3.72-3.72 7.24-7.57 10.7-11.6 2.29-2.64 4.68-5.18 7.06-7.74 4.45-4.83 8.58-9.79 12.5-15.1 0.937-1.24 1.87-2.48 2.81-3.73 5.23-6.93 10.4-13.9 15.5-20.9 6.76-9.18 6.76-9.18 14.7-7.33z" fill="#000102"/>
<path transform="translate(1063,1380)" d="m0 0c3 2 3 2 3.75 4.38 0.26 2.73 0.253 4.1-0.75 6.62-2.18 1.89-2.18 1.89-4.88 3.69-0.884 0.602-1.77 1.2-2.68 1.82-2.45 1.49-2.45 1.49-5.45 2.49v2c-0.888 0.454-0.888 0.454-1.79 0.918-3.66 1.94-6.73 3.6-9.64 6.58-3.1 3.03-6.32 4.41-10.2 6.24-3 1.6-4.99 3.83-7.36 6.26-2.31 1.05-4.65 2.04-7 3-2.14 1.28-4.22 2.63-6.3 4.01-1.7 0.988-1.7 0.988-3.7 0.988v2c-2.62 1.34-5.25 2.67-7.88 4-0.746 0.382-1.49 0.763-2.26 1.16-0.715 0.361-1.43 0.722-2.17 1.09-0.66 0.335-1.32 0.67-2 1.02-1.7 0.734-1.7 0.734-3.7 0.734v2c-0.641 0.242-1.28 0.485-1.94 0.734-4.17 1.62-8.2 3.23-12.1 5.52-3 1.75-3 1.75-5 1.75v2c-0.869 0.326-1.74 0.652-2.63 0.988-1.15 0.437-2.3 0.874-3.49 1.32-1.71 0.644-1.71 0.644-3.45 1.3-3.45 1.34-3.45 1.34-6.73 3.05-2.7 1.33-2.7 1.33-4.7 1.33v2c-0.834 0.254-1.67 0.508-2.53 0.77-1.13 0.344-2.25 0.688-3.41 1.04-1.18 0.357-2.37 0.714-3.59 1.08-2.89 0.921-5.66 1.98-8.47 3.11-2.12 0.719-2.12 0.719-4 1-3.43-1.71-4.57-3-6.06-6.5 0.0625-2.5 0.0625-2.5 1.75-4.5 2.42-2.09 4.5-3.2 7.44-4.44 1.51-0.648 1.51-0.648 3.05-1.31 1.08-0.452 2.15-0.905 3.26-1.37 2.27-0.978 4.55-1.96 6.82-2.94 1.14-0.491 2.27-0.983 3.45-1.49 20.2-8.83 39.7-19 58.5-30.4 1.5-0.9 3.01-1.79 4.52-2.67 11.4-6.7 22.3-14.3 33-22.1 2.99-2.15 5.99-4.28 9-6.4 0.779-0.548 1.56-1.1 2.36-1.66 3.16-2.14 5.07-2.56 8.89-2.28z" fill="#000102"/>
<path transform="translate(1263 1092)" d="m0 0c2.51 1.06 3.67 1.9 5.38 4 0 11-4.79 22.5-8.99 32.6-1.1 2.67-2.12 5.36-3.13 8.06-9.9 25.7-21.4 50.3-34.9 74.4-0.827 1.49-1.65 2.99-2.48 4.48-13.7 24.6-13.7 24.6-17.5 27.5-3.69-0.312-3.69-0.312-7-1v-2h-2c-0.272-4.56 0.262-7.2 2.56-11.1 0.545-0.946 1.09-1.89 1.65-2.87 0.589-0.992 1.18-1.98 1.78-3.01 0.598-1.03 1.2-2.06 1.81-3.13 1.72-2.96 3.45-5.92 5.19-8.87 10.4-17.8 19.9-36 28-55 0.422-0.986 0.845-1.97 1.28-2.99 4.58-10.8 8.96-21.6 12.7-32.7 0.367-1.09 0.367-1.09 0.741-2.2 1.19-3.56 2.36-7.12 3.5-10.7 0.428-1.3 0.856-2.6 1.28-3.91 0.365-1.14 0.729-2.29 1.1-3.46 1.88-4.12 4.17-8.08 9.03-8.08z" fill="#000102"/>
<path transform="translate(427,1416)" d="m0 0c1.52 0.919 3.04 1.84 4.56 2.75 0.834 0.503 1.67 1.01 2.53 1.52 8.96 5.31 18 10.4 27.3 15 0.625 0.313 1.25 0.626 1.9 0.949 4.1 2.02 8.24 3.91 12.4 5.75 2.1 0.926 4.19 1.87 6.29 2.81 16.3 7.34 32.6 14.4 49.8 19.5 4.49 1.34 8.97 2.73 13.4 4.16 0.906 0.273 1.81 0.546 2.75 0.827 5.07 1.63 8.13 2.91 11 7.67 1 2.06 1 2.06 1 4-1.38 2.31-1.38 2.31-4 4-7.78-0.125-15.4-2.29-23-4v-2c-8.99-2.72-18-5.36-27-8v-2c-0.681-0.103-1.36-0.206-2.06-0.312-4.78-1.12-9.09-3.31-13.6-5.31-2.85-1.16-5.35-1.92-8.38-2.38v-2c-0.763-0.227-1.53-0.454-2.31-0.688-4.14-1.47-8.04-3.3-12-5.19-2.58-1.08-4.93-1.68-7.68-2.12v-2c-0.721-0.277-1.44-0.554-2.18-0.84-3.58-1.48-6.98-3.25-10.4-5.04-2.15-1-4.09-1.65-6.4-2.12v-2c-0.639-0.227-1.28-0.454-1.94-0.688-3.46-1.48-6.63-3.29-9.88-5.19-2.08-1.07-3.91-1.66-6.18-2.12v-2c-0.553-0.272-1.11-0.544-1.68-0.824-2.53-1.28-5.03-2.6-7.51-3.99-1.32-0.721-1.32-0.721-2.67-1.46-2.14-1.73-2.14-1.73-3.01-4.24-0.137-2.49-0.137-2.49 0.863-5.49-0.66-0.33-1.32-0.66-2-1 8.11-2.59 13.2-0.258 20 4z" fill="#000102"/>
<path transform="translate(1169,583)" d="m0 0h2v2c0.846-0.289 1.69-0.577 2.56-0.875 3.64-0.132 4.12-0.0581 6.81 2.06 4.31 4.11 7.35 9.07 10.5 14.1 1.57 2.45 3.2 4.86 4.83 7.27 4.97 7.37 9.68 14.9 14.3 22.5 1.03 1.65 1.03 1.65 2.07 3.34 4.82 7.8 9.22 15.8 13.5 23.9 0.537 1.01 1.07 2.03 1.63 3.07 0.495 0.951 0.991 1.9 1.5 2.88 0.445 0.852 0.891 1.7 1.35 2.58 0.959 2.21 0.959 2.21 0.959 5.21h2c0.246 0.553 0.493 1.11 0.747 1.68 1.98 4.43 3.96 8.86 5.95 13.3 0.379 0.844 0.758 1.69 1.15 2.56 1.18 2.53 2.43 5.01 3.72 7.48 2.53 4.96 4.64 10.1 6.75 15.2 0.362 0.865 0.725 1.73 1.1 2.62 1.8 4.47 3.29 8.23 2.59 13.1-2.06 2.06-2.06 2.06-5 3-3.46-0.503-4.48-0.758-7-3-2.14-3.46-3.65-7.13-5.16-10.9-1.56-3.89-3.2-7.74-4.84-11.6-0.373-0.877-0.745-1.75-1.13-2.66-13.9-32.3-30.9-62.6-50.8-91.6-0.667-0.973-0.667-0.973-1.35-1.97-1.92-2.78-3.87-5.48-5.95-8.14-4.06-5.24-5.52-8.61-5.01-15.3 0.0812-0.606 0.162-1.21 0.246-1.84z" fill="#000102"/>
<path transform="translate(274,1294)" d="m0 0c3.29-0.671 4.83-0.917 8 0 3.8 3.28 6.85 7.1 10 11 1.28 1.49 2.58 2.97 3.88 4.44 0.545 0.63 1.09 1.26 1.65 1.91 1.24 1.4 2.57 2.72 3.91 4.03 1.56 1.62 1.56 1.62 1.56 3.62 0.891 0.383 0.891 0.383 1.8 0.773 2.43 1.35 3.65 2.7 5.39 4.85 3.37 4.01 7.08 7.35 11.1 10.7 0.568 0.549 1.14 1.1 1.72 1.66v2c0.575 0.246 1.15 0.492 1.74 0.746 2.61 1.45 4.32 3.16 6.38 5.32 2.65 2.85 2.65 2.85 5.88 4.94v2c0.793 0.327 0.793 0.327 1.6 0.66 3.29 1.84 5.96 4.29 8.77 6.78 14.8 12.9 30.5 24.7 46.6 35.9 2.04 1.62 2.04 1.62 4.04 4.62 0.312 3.56 0.312 3.56 0 7-3.28 2.19-4.19 2.49-8 2-2.57-1.5-2.57-1.5-5.12-3.44-2.72-2.05-4.64-3.48-7.88-4.56-1.69-1.64-3.35-3.31-5-5-2.75-2.35-4.56-3.85-8-5v-2c-0.536-0.227-1.07-0.454-1.62-0.688-2.38-1.31-2.38-1.31-5.44-3.88-2.74-2.57-2.74-2.57-5.94-3.44-1.34-1.66-2.68-3.33-4-5-2.72-2.39-4.56-3.85-8-5-1.21-1.48-2.42-2.95-3.61-4.45-2.11-2.34-4.77-3.82-7.39-5.55-0.639-0.804-1.28-1.61-1.94-2.44-1.82-2.26-3.03-3.32-5.38-4.88-3.64-2.47-6.25-5.43-9.07-8.78-2.59-3.07-5.37-5.87-8.45-8.45-4.5-3.77-8.06-7.68-11.6-12.4-1.99-2.59-4.22-4.83-6.59-7.07-1.37-1.3-2.72-2.62-4-4v-2h-2c-2.98-3.26-5.85-6.87-6.17-11.4 0.293-2.18 0.293-2.18 1.17-5.62z" fill="#000102"/>
<path transform="translate(1047,459)" d="m0 0h4v2c0.726 0.0941 1.45 0.188 2.2 0.285 3.23 0.825 5.02 2.08 7.61 4.15 0.79 0.617 1.58 1.23 2.39 1.87 0.592 0.558 1.18 1.12 1.79 1.69v2c0.562 0.0941 1.12 0.188 1.7 0.285 2.86 0.891 4.69 2.3 7.05 4.15 0.799 0.617 1.6 1.23 2.42 1.87 0.603 0.558 1.21 1.12 1.83 1.69v2c1.02 0.309 1.02 0.309 2.06 0.625 3.85 1.8 7.02 4.28 9.94 7.38v2c0.874 0.141 0.874 0.141 1.77 0.285 2.73 0.874 3.99 2.11 5.98 4.15 0.614 0.617 1.23 1.23 1.86 1.87 1.39 1.69 1.39 1.69 1.39 3.69 0.874 0.141 0.874 0.141 1.77 0.285 2.73 0.874 3.99 2.11 5.98 4.15 0.614 0.617 1.23 1.23 1.86 1.87 1.39 1.69 1.39 1.69 1.39 3.69h3c1.28 1.47 2.55 2.94 3.72 4.49 1.4 1.78 1.4 1.78 4.28 3.51v2c0.578 0.227 1.15 0.454 1.75 0.688 2.81 1.64 4.28 3.75 6.25 6.31l2 1v2h2c1.73 1.68 1.73 1.68 3.62 3.88 0.632 0.719 1.26 1.44 1.91 2.18 1.46 1.95 1.46 1.95 1.46 3.95 1.48 0.495 1.48 0.495 3 1 1.61 1.56 1.61 1.56 3.19 3.44 0.53 0.617 1.06 1.23 1.61 1.87 1.21 1.69 1.21 1.69 1.21 3.69h2c1.51 1.68 1.51 1.68 3.12 3.88 0.539 0.719 1.08 1.44 1.63 2.18 1.24 1.95 1.24 1.95 1.24 3.95 0.598 0.247 1.2 0.495 1.81 0.75 2.64 1.51 3.79 2.53 5.19 5.25-0.436 6.44-0.436 6.44-2 8-3.21 0.45-5.79 0.676-8.7-0.953-4.54-3.69-8.01-8.29-11.6-12.8-3.62-4.44-7.58-8.57-11.5-12.7-2.88-3.04-5.7-6.11-8.42-9.28-4.44-5.11-9.23-9.86-14-14.6-0.906-0.909-1.81-1.82-2.74-2.76-0.864-0.863-1.73-1.73-2.62-2.62-1.17-1.17-1.17-1.17-2.37-2.37-1.83-1.88-1.83-1.88-3.95-2.82v-2c-0.578-0.268-1.15-0.536-1.75-0.812-2.31-1.22-4.27-2.49-6.25-4.19v-2c-0.554-0.235-1.11-0.469-1.68-0.711-2.9-1.61-5.03-3.64-7.45-5.91-6.61-6.13-13.6-11.6-20.7-17.1-1.12-0.862-2.24-1.73-3.35-2.59-2.47-1.91-4.96-3.78-7.53-5.56-3.99-2.82-6.56-4.67-7.8-9.53-0.144-1.18-0.289-2.35-0.438-3.56 2.97 0.495 2.97 0.495 6 1v-2z" fill="#000102"/>
<path transform="translate(184,1142)" d="m0 0c2.19 0 2.19 0 5 1 4.15 4.56 6.24 10.7 8.58 16.3 2.73 6.5 5.87 12.8 9.08 19 1.58 3.09 3.13 6.18 4.69 9.27 14.4 28.4 30.9 55.7 50.4 80.9 0.418 0.542 0.835 1.08 1.27 1.64 1.11 1.43 2.24 2.85 3.36 4.27 2.17 3.32 2.95 5.92 2.21 9.83-0.186 0.557-0.371 1.11-0.562 1.69-3.19 0.812-3.19 0.812-7 1-32.1-27.9-54.7-77.8-72-116-0.988-2.16-2-4.31-3.01-6.46-0.651-1.42-1.3-2.84-1.95-4.25-0.303-0.639-0.606-1.28-0.919-1.94-1.93-4.3-2.37-7.75-2.08-12.4 0.99-0.33 1.98-0.66 3-1v-3z" fill="#000102"/>
<path transform="translate(888,379)" d="m0 0h6v2c1.28 0.0915 2.55 0.183 3.87 0.277 5.41 0.601 10.1 2.31 15.2 4.29 1.3 0.494 1.3 0.494 2.62 0.998 2.11 0.804 4.21 1.62 6.31 2.44v2c1.46 0.137 1.46 0.137 2.94 0.277 4.65 0.664 8.71 2.43 13 4.29 0.779 0.329 1.56 0.659 2.36 0.998 1.9 0.806 3.8 1.62 5.7 2.44v2c0.991 0.0915 1.98 0.183 3 0.277 4.38 0.626 8 2.33 11.9 4.29 0.684 0.329 1.37 0.659 2.07 0.998 1.67 0.805 3.33 1.62 4.99 2.44v2c0.848 0.0915 1.7 0.183 2.57 0.277 3.94 0.829 6.8 2.32 10.3 4.29 1.15 0.641 2.3 1.28 3.49 1.94 1.3 0.741 1.3 0.741 2.63 1.5v2c0.859 0.0941 1.72 0.188 2.6 0.285 3.81 0.801 6.44 2.17 9.77 4.15 1.06 0.617 2.12 1.23 3.21 1.87 0.797 0.558 1.59 1.12 2.41 1.69v2c1.04 0.141 1.04 0.141 2.11 0.285 3.49 0.861 6.11 2.33 9.21 4.15 1.07 0.617 2.14 1.23 3.24 1.87 0.808 0.558 1.62 1.12 2.45 1.69v2c0.681 0.0412 1.36 0.0825 2.06 0.125 4.2 1.25 7.15 3.49 9.94 6.88 0.625 3.25 0.625 3.25 0 6-3.65 2.43-4.68 2.62-9 2-3.47-1.71-6.65-3.82-9.88-5.94-1.89-1.21-3.78-2.41-5.67-3.61-0.929-0.592-1.86-1.18-2.81-1.79-6.07-3.81-12.3-7.25-18.6-10.7-0.734-0.398-1.47-0.796-2.22-1.21-11.1-5.97-22.3-11.5-33.7-16.8-1.98-0.943-3.94-1.93-5.89-2.93-5.26-2.65-10.7-4.87-16.1-7.12-1.03-0.434-2.07-0.868-3.13-1.31-5.16-2.15-10.3-4.16-15.6-5.87-4.59-1.5-9.13-3.17-13.7-4.81-0.984-0.351-1.97-0.703-2.98-1.06-0.942-0.341-1.88-0.682-2.86-1.03-1.27-0.458-1.27-0.458-2.57-0.926-2.22-0.914-2.22-0.914-5.22-2.91-0.688-2.62-0.688-2.62-1-5 1.65-0.66 3.3-1.32 5-2v-2z" fill="#000102"/>
<path transform="translate(225 629)" d="m0 0c1.49 0.155 1.49 0.155 3 0.312 2.35 3.52 2.39 4.86 2 9-1.15 2.72-1.15 2.72-2.79 5.51-0.605 1.05-1.21 2.11-1.83 3.2-0.661 1.13-1.32 2.26-2 3.42-1.39 2.44-2.77 4.88-4.15 7.32-0.53 0.938-0.53 0.938-1.07 1.89-17.5 31.2-30.7 64.1-42 98-0.432 1.29-0.432 1.29-0.872 2.61-1.21 3.64-2.39 7.29-3.46 11-0.324 1.09-0.647 2.17-0.98 3.29-0.375 1.35-0.375 1.35-0.758 2.73-1.12 2.08-1.12 2.08-3.48 3.38-2.63 0.699-2.63 0.699-6.63 0.699-2.08-5.59-1.94-9.23-0.125-14.9 0.227-0.76 0.454-1.52 0.688-2.3 0.787-2.6 1.61-5.18 2.44-7.76 0.314-0.99 0.627-1.98 0.95-3 1-3.15 2.02-6.3 3.05-9.44 0.32-0.982 0.639-1.96 0.968-2.97 1.97-5.88 4.27-11.5 6.89-17.1 1.46-3.2 2.65-6.43 3.83-9.74 7.62-20.8 17.4-40.6 27.9-60.1 0.53-0.991 1.06-1.98 1.61-3 11.6-21.5 11.6-21.5 16.8-22z" fill="#000102"/>
<path transform="translate(492,398)" d="m0 0c0.33 0.99 0.66 1.98 1 3l2 1c-0.33 2.9-0.571 4.52-2 7-3.15 2.2-6.62 3.52-10.2 4.94-2.02 0.857-4.04 1.72-6.05 2.58-0.988 0.418-1.98 0.837-2.99 1.27-3.65 1.6-7.15 3.41-10.6 5.34-4.24 2.33-8.49 4.56-12.8 6.67-10.5 5.09-20.4 11.1-30.3 17.2-0.744 0.457-1.49 0.915-2.25 1.39-11.5 7.07-22.8 14.3-33.6 22.4-0.671 0.504-1.34 1.01-2.03 1.53-3.45 2.6-6.88 5.22-10.3 7.87-1.33 1.01-2.65 2.02-3.98 3.04-0.905 0.717-0.905 0.717-1.83 1.45-3.8 2.87-6.29 3.94-11 3.3-0.66-0.33-1.32-0.66-2-1-0.875-2.75-0.875-2.75-1-6 2.54-4.16 6.12-7.11 10-10h3v-2c2.3-1.95 2.3-1.95 5.31-4.12 1.48-1.09 1.48-1.09 2.99-2.2 2.7-1.68 2.7-1.68 5.7-1.68 0.33-0.99 0.66-1.98 1-3 2.18-1.82 2.18-1.82 4.88-3.69 1.33-0.934 1.33-0.934 2.68-1.89 2.45-1.43 2.45-1.43 5.45-1.43v-2c2.48-1.95 2.48-1.95 5.75-4.12 1.07-0.724 2.13-1.45 3.23-2.2 3.02-1.68 3.02-1.68 7.02-1.68 0.33-0.99 0.66-1.98 1-3 2.36-1.82 2.36-1.82 5.31-3.69 0.966-0.623 1.93-1.25 2.93-1.89 2.76-1.43 2.76-1.43 6.76-1.43v-2c2.24-1.34 4.49-2.68 6.75-4 0.951-0.572 0.951-0.572 1.92-1.16 3.47-2.02 5.22-2.84 9.33-2.84v-2c2.41-1.34 4.83-2.68 7.25-4 0.682-0.382 1.36-0.763 2.07-1.16 0.996-0.541 0.996-0.541 2.01-1.09 0.911-0.503 0.911-0.503 1.84-1.02 1.83-0.734 1.83-0.734 5.83-0.734v-2c2.91-1.35 5.83-2.67 8.75-4 1.24-0.572 1.24-0.572 2.5-1.16 0.799-0.361 1.6-0.722 2.42-1.09 0.733-0.335 1.47-0.67 2.22-1.02 2.11-0.734 2.11-0.734 6.11-0.734v-2c2.93-0.976 4.96-1.08 8-1z" fill="#000102"/>
<path transform="translate(342,493)" d="m0 0c2 2 2 2 2.62 5.12-0.929 5.76-4.33 8.17-8.62 11.9-0.67 0.588-1.34 1.18-2.03 1.78-1.31 1.14-2.62 2.28-3.95 3.41-2.94 2.62-5.64 5.45-8.36 8.3-1.66 1.5-1.66 1.5-3.66 1.5-0.227 0.557-0.454 1.11-0.688 1.69-1.66 2.92-3.93 4.99-6.31 7.31-1.18 1.16-2.35 2.32-3.52 3.49-0.625 0.619-1.25 1.24-1.89 1.88-5.75 5.71-11.4 11.4-16.6 17.6-0.907 1.05-1.82 2.09-2.73 3.13-6.73 7.74-13.1 15.7-19.3 23.9-0.703 0.917-1.41 1.83-2.13 2.78-5.61 7.37-10.9 14.9-16.2 22.5-0.579 0.835-1.16 1.67-1.75 2.53-0.778 1.13-0.778 1.13-1.57 2.28-2.31 3.16-2.98 3.81-6.99 4.5-1.11 0.124-2.23 0.247-3.38 0.375-1.56-1.69-1.56-1.69-3-4 0.249-4.98 3.02-8.39 5.81-12.3 0.487-0.695 0.974-1.39 1.48-2.11 7.34-10.4 15-20.6 23-30.5 1.61-2.03 3.09-4.12 4.56-6.25 0.701-0.949 1.4-1.9 2.12-2.88h2c0.227-0.536 0.454-1.07 0.688-1.62 1.77-3.2 3.85-5.67 6.31-8.38h2c0.34-1.08 0.34-1.08 0.688-2.19 1.58-3.38 3.52-5.37 6.31-7.81h2c0.34-1.08 0.34-1.08 0.688-2.19 1.58-3.38 3.52-5.37 6.31-7.81h2c0.206-0.536 0.413-1.07 0.625-1.62 1.91-3.29 4.42-5.97 7.38-8.38h2c0.309-0.804 0.309-0.804 0.625-1.62 1.91-3.29 4.42-5.97 7.38-8.38h2c0.258-0.593 0.516-1.19 0.781-1.8 1.32-2.38 2.64-3.71 4.72-5.45 0.608-0.521 1.22-1.04 1.84-1.58 1.66-1.17 1.66-1.17 3.66-1.17 0.227-0.577 0.454-1.15 0.688-1.75 2.98-5.12 6.44-7.03 12.3-6.25z" fill="#000102"/>
<path transform="translate(147 970)" d="m0 0c5.34 4.31 4.72 15.8 5.4 22.1 3.19 29.2 8.78 58.1 16.5 86.5 0.213 0.784 0.427 1.57 0.646 2.38 2.01 7.3 4.31 14.5 6.66 21.7 0.416 1.28 0.831 2.55 1.25 3.83 0.823 2.53 1.66 5.05 2.5 7.57 0.38 1.16 0.761 2.32 1.15 3.51 0.345 1.04 0.69 2.08 1.05 3.15 0.734 2.82 1.04 4.98 0.747 7.87-0.66 0.99-1.32 1.98-2 3-2.97-0.33-5.94-0.66-9-1-16.4-49.1-31.6-100-33.2-152-0.0263-0.794-0.0527-1.59-0.0798-2.41 0.414-2.66 1.21-3.48 3.33-5.09 3-1 3-1 5.06-0.562z" fill="#000102"/>
<path transform="translate(665,355)" d="m0 0c2 3 2 3 1.75 5.56-0.75 2.44-0.75 2.44-2.75 4.44-2.06 0.491-4.14 0.881-6.23 1.22-1.92 0.315-1.92 0.315-3.88 0.637-1.36 0.215-2.72 0.43-4.08 0.645-1.3 0.213-2.59 0.425-3.93 0.645-6.53 1.06-13.1 2.03-19.6 2.88-27.5 3.6-55.9 9.74-82 19.2-4.48 1.59-9.01 3.05-13.5 4.53-6.34 2.07-6.34 2.07-12.6 4.44-3.11 1.19-5.84 1.06-9.12 0.812-2-2-2-2-2.38-4.88 0.481-4.01 1.21-4.64 4.38-7.12 3.21-1.49 6.52-2.62 9.88-3.75 0.886-0.316 1.77-0.632 2.68-0.957 4.61-1.59 8.49-2.72 13.4-2.29v-2c4.16-1.35 8.33-2.68 12.5-4 1.17-0.382 2.35-0.763 3.55-1.16 6.2-1.95 11.4-3.36 17.9-2.84v-2c4.9-1.16 9.81-2.29 14.7-3.42 1.67-0.383 3.33-0.771 4.99-1.16 9.52-2.25 18.4-4.12 28.3-3.42v-2c5.42-0.743 10.9-1.47 16.3-2.19 1.84-0.246 3.69-0.495 5.53-0.748 2.66-0.364 5.32-0.715 7.98-1.06 0.817-0.115 1.63-0.229 2.48-0.347 4.77-0.613 9-0.814 13.7 0.351z" fill="#000102"/>
<path transform="translate(161 794)" d="m0 0c2.61 3.07 2.02 6.23 1.75 10.1-0.409 3-0.996 5.96-1.61 8.92-0.345 1.75-0.689 3.49-1.03 5.24-0.181 0.91-0.362 1.82-0.549 2.76-4.07 20.6-7 41.1-8.81 62.1-0.11 1.25-0.221 2.5-0.334 3.78-1.06 12.4-1.68 24.8-1.83 37.3-0.0135 0.958-0.0269 1.92-0.0408 2.9-0.0666 4.78-0.108 9.55-0.103 14.3-0.0177 1.75-0.0362 3.5-0.0559 5.25 0.0103 0.808 0.0206 1.62 0.0312 2.45-0.0403 2.26-0.0403 2.26-0.668 5.98-2.54 2.03-2.54 2.03-5 3-4.78-2.45-4.78-2.45-5.65-4.61-0.504-3.43-0.513-6.84-0.518-10.3-0.00628-1.18-0.00628-1.18-0.0127-2.39-0.00986-2.59-0.00977-5.18-0.00684-7.77 2.72e-4 -0.89 5.44e-4 -1.78 8.24e-4 -2.7 0.0254-18.1 0.772-36.2 2.19-54.2 0.0859-1.13 0.172-2.26 0.26-3.42 1.27-15.7 3.95-31.2 6.74-46.7 0.173-0.969 0.347-1.94 0.525-2.94 0.504-2.8 1.02-5.59 1.54-8.38 0.15-0.83 0.3-1.66 0.455-2.52 2.7-14.3 2.7-14.3 6.48-18 2.61-1.13 3.6-1.17 6.25-0.0625z" fill="#000102"/>
<path transform="translate(1071,877)" d="m0 0c4.8 1.13 6.82 3.89 9.67 7.64 2.94 5.21 3.58 10.5 3.59 16.4 0.0035 0.663 0.00701 1.33 0.0106 2.01 0.00873 2.17 3e-3 4.34-0.00378 6.51 0.00135 1.52 0.00329 3.04 0.0058 4.56 0.00294 3.18-0.00131 6.35-0.0107 9.53-0.0114 4.06-0.00483 8.12 0.00714 12.2 0.00725 3.14 0.00492 6.27-2.56e-4 9.41-0.00133 1.5 2.8e-4 2.99 0.00496 4.49 0.00512 2.1-0.00272 4.19-0.0138 6.29-0.00239 1.78-0.00239 1.78-0.00482 3.6-0.488 6.56-2.22 11.2-6.59 16-2.41 1.99-4.59 2.31-7.66 2.38-1.71-3.42-1.15-7.34-1.15-11.1-0.00336-0.943-0.00672-1.89-0.0102-2.86-0.00953-3.13-0.0115-6.26-0.0125-9.39-0.00321-2.17-0.00657-4.33-0.0101-6.5-6e-3 -4.55-0.00784-9.09-0.00725-13.6 1.02e-4 -5.84-0.0136-11.7-0.0308-17.5-0.0111-4.48-0.0131-8.95-0.0126-13.4-0.00118-2.15-0.00563-4.31-0.0133-6.46-0.00975-3-0.00694-6.01-8.95e-4 -9.01-0.00562-0.897-0.0112-1.79-0.017-2.72 0.0316-6.15 0.0316-6.15 2.26-8.38z" fill="#0D0F0F"/>
<path transform="translate(643,930)" d="m0 0c0.727 1.62 0.727 1.62 1 4-1.41 2.75-1.41 2.75-3.62 6-0.839 1.25-1.68 2.51-2.52 3.76-0.689 1.02-0.689 1.02-1.39 2.06-2.67 3.96-5.25 7.98-7.84 12-1.11 1.71-2.23 3.42-3.34 5.14-2.11 3.25-4.22 6.5-6.31 9.76-4.31 6.69-8.64 13.3-13.3 19.8-1.98 2.86-3.84 5.78-5.71 8.72-19.6 30.7-19.6 30.7-29 39.8-0.599 0.585-1.2 1.17-1.82 1.77-12.2 11.2-28.4 11.8-44.2 11.2 1.49-0.495 1.49-0.495 3-1v-2c0.573-0.15 1.15-0.301 1.74-0.456 22.1-5.86 34.3-12.3 47.3-31.5 1.16-1.67 2.33-3.34 3.5-5 0.581-0.831 1.16-1.66 1.76-2.52 1.12-1.6 2.25-3.21 3.38-4.8 4.81-6.82 9.44-13.8 14.1-20.7 2.09-3.16 4.2-6.31 6.3-9.46 0.833-1.25 1.67-2.5 2.5-3.75 5-7.5 5-7.5 6.25-9.38 0.829-1.24 1.66-2.49 2.49-3.73 2.14-3.21 4.29-6.43 6.44-9.64 0.879-1.31 1.76-2.63 2.64-3.94 0.42-0.627 0.839-1.25 1.27-1.9 2.21-3.31 4.35-6.64 6.42-10 2.81-4.38 4.06-4.12 9-4.12z" fill="#0C0E0E"/>
<path transform="translate(1050,1052)" d="m0 0h3c1.57 46.1-9.21 91.5-31 132-0.329 0.613-0.657 1.23-0.996 1.86-4.42 8.17-9.36 15.8-15 23.1-0.761 1.03-1.52 2.05-2.3 3.11-6.06 8.13-12.7 15.6-19.7 22.9-0.672 0.701-1.34 1.4-2.04 2.12-3.4 3.47-6.98 6.68-10.7 9.85-2.3 2.02-4.55 4.1-6.79 6.18-4.63 4.3-9.23 8.36-14.5 11.8-0.66-0.33-1.32-0.66-2-1 0.857-0.701 1.71-1.4 2.6-2.12 5.81-4.81 11.3-9.46 16-15.4 1.37-1.46 1.37-1.46 4.37-2.46l1-2c1-2 1-2 4-3 0.247-0.701 0.495-1.4 0.75-2.12 1.22-2.82 2.02-3.78 4.19-5.81 27.6-26.5 44.2-65.2 55.1-101 0.29-0.947 0.58-1.89 0.879-2.87 5.46-18.3 7.64-37.3 10.2-56.1 0.854-6.35 1.84-12.7 2.96-19z" fill="#FDFDFD"/>
<path transform="translate(896 519)" d="m0 0c2.56 0.524 5.11 1.09 7.66 1.68 0.933 0.215 1.87 0.43 2.83 0.652 7.48 1.77 14.9 3.71 22.3 5.79 1.03 0.281 2.07 0.561 3.13 0.85 0.961 0.278 1.92 0.555 2.91 0.841 0.85 0.24 1.7 0.481 2.57 0.729 2.69 1.25 3.72 2.46 5.19 5.02 0.25 3.69 0.25 3.69 0 7-1 1-1 1-4.33 1.23-5.66-0.0767-11-1.53-16.4-2.92-1.09-0.271-2.18-0.542-3.31-0.822-2.23-0.556-4.47-1.12-6.7-1.68-3.03-0.76-6.07-1.49-9.12-2.22-1.77-0.427-3.54-0.854-5.32-1.28-0.806-0.19-1.61-0.379-2.44-0.575-5.36-1.32-10.4-2.74-14.4-6.74 0.188-3.5 0.188-3.5 1-7 4.71-3.14 9.04-1.55 14.4-0.554z" fill="#FDFDFD"/>
<path transform="translate(648 740)" d="m0 0c1.02-0.00846 2.05-0.0169 3.11-0.0256 1.69 0.00911 1.69 0.00911 3.41 0.0184 1.18-0.00526 2.37-0.0105 3.59-0.0159 3.25-0.011 6.5-0.00837 9.74 0.00114 3.4 0.00759 6.8 5.52e-4 10.2-0.00416 5.71-0.00546 11.4 0.00174 17.1 0.016 6.6 0.0163 13.2 0.011 19.8-0.00548 5.67-0.0136 11.3-0.0155 17-0.00768 3.38 0.00468 6.77 0.0053 10.2-0.00461 3.77-0.0076 7.55 0.00397 11.3 0.0207 1.12-0.00607 2.24-0.0121 3.4-0.0184 1.03 0.00846 2.06 0.0169 3.11 0.0256 1.34 0.0017 1.34 0.0017 2.7 0.00343 2.85 0.45 4.25 1.5 6.39 3.38-4.99 0.556-9.99 1.11-15 1.65-1.69 0.186-3.38 0.373-5.08 0.562-25.9 2.88-51.3 3.67-77.2 1.41-0.727-0.0631-1.45-0.126-2.2-0.191-9.89-0.875-19.7-2.04-29.5-3.43 2.47-3.07 4.09-3.38 7.97-3.38z" fill="#FDFDFD"/>
<path transform="translate(903,545)" d="m0 0c3.76 0.831 7.47 1.8 11.2 2.81 1.01 0.269 2.02 0.538 3.05 0.816 2.92 0.783 5.84 1.58 8.76 2.37 0.768 0.206 1.54 0.412 2.33 0.624 16.3 4.39 16.3 4.39 19.7 9.38 0.0791 2.33 0.088 4.67 0 7-8.26 0.494-15.1-0.29-23-2.79-5.75-1.8-11.7-3.01-17.6-4.28-13.6-3.07-13.6-3.07-17.5-8.93 0.188-3.06 0.188-3.06 1-6 4.13-2.75 7.34-1.84 12-1z" fill="#FDFDFD"/>
<path transform="translate(729,1236)" d="m0 0v2h4c-0.33 0.66-0.66 1.32-1 2h-52c-0.33-0.66-0.66-1.32-1-2 15.9-7.39 33.4-7.52 50-2z" fill="#FDFDFD"/>
<path transform="translate(1e3 1018)" d="m0 0c0.66 0.33 1.32 0.66 2 1-9.84 20.8-24.2 33.5-45.7 41.4-2.31 0.566-2.31 0.566-5.31-0.434 0.804-0.124 1.61-0.247 2.44-0.375 0.846-0.206 1.69-0.412 2.56-0.625 0.33-0.66 0.66-1.32 1-2h2c0.731-0.741 1.46-1.48 2.21-2.25 2.93-2.9 5.81-4.73 9.35-6.82 7.36-4.51 16.5-11 20.4-18.9h2c0.33-0.99 0.66-1.98 1-3 1.33-1.33 2.67-2.67 4-4 1.24-2.13 1.24-2.13 2-4z" fill="#FDFDFD"/>
<path transform="translate(403,1019)" d="m0 0c0.845 1.08 0.845 1.08 1.71 2.18 2.97 3.65 6.17 7.07 9.37 10.5 1.93 2.3 1.93 2.3 2.93 5.3 1.31 0.707 2.65 1.37 4 2 1.59 1.22 3.15 2.47 4.69 3.75 5.42 4.41 11 8.32 17.1 11.9 2.6 1.59 4.9 3.43 7.25 5.38-5.57-0.571-10-2.56-15-5-0.735-0.361-1.47-0.722-2.23-1.09-13.2-6.88-23.9-17.1-29.8-30.9v-4z" fill="#FDFDFD"/>
<path transform="translate(155,813)" d="m0 0c2.06 0.438 2.06 0.438 4 1-0.33 2.31-0.66 4.62-1 7-1.65 0.33-3.3 0.66-5 1 0.875-7.88 0.875-7.88 2-9z" fill="#0D0F0F"/>
<path transform="translate(169,758)" d="m0 0h4v5c-1.98 0.99-1.98 0.99-4 2-1.12-4.75-1.12-4.75 0-7z" fill="#0D0F0F"/>
</svg>
